<svg xmlns="http://www.w3.org/2000/svg" width="17" height="39" viewBox="0 0 17 39"><g><g><g opacity=".3"><path fill="#fff" d="M8.5 0c1.294 0 2.344 1.063 2.344 2.375S9.794 4.75 8.5 4.75c-1.294 0-2.344-1.063-2.344-2.375S7.206 0 8.5 0z"/></g><g opacity=".5"><path fill="#fff" d="M8.5 8.187c1.674 0 3.031 1.379 3.031 3.079 0 1.7-1.357 3.078-3.031 3.078-1.674 0-3.031-1.378-3.031-3.078S6.826 8.187 8.5 8.187z"/></g><g opacity=".7"><path fill="#fff" d="M8.828 17.75c2.235 0 4.047 1.833 4.047 4.094 0 2.26-1.812 4.093-4.047 4.093-2.235 0-4.047-1.832-4.047-4.093s1.812-4.094 4.047-4.094z"/></g><g><path fill="#fff" d="M7.536 38.587l-7.15-7.241a1.378 1.378 0 0 1 0-1.931h16.207a1.378 1.378 0 0 1 0 1.93l-7.15 7.242a1.336 1.336 0 0 1-1.907 0z"/></g></g></g></svg>