<svg xmlns="http://www.w3.org/2000/svg" width="1168" height="825" viewBox="0 0 1168 825"><defs><mask id="5z5gb" width="2.2" height="2.2" x="-1.1" y="-1.1"><path fill="#fff" d="M11.4 681.4h7.2v7.2h-7.2z"/><path d="M15 682a3 3 0 1 1 0 6 3 3 0 0 1 0-6z"/></mask><filter id="5z5ga" width="58" height="58" x="-14" y="656" filterUnits="userSpaceOnUse"><feOffset in="SourceGraphic" result="FeOffset1663Out"/><feGaussianBlur in="FeOffset1663Out" result="FeGaussianBlur1664Out" stdDeviation="6.16 6.16"/></filter><mask id="5z5gd" width="2.2" height="2.2" x="-1.1" y="-1.1"><path fill="#fff" d="M289.4 806.4h7.2v7.2h-7.2z"/><path d="M293 807a3 3 0 1 1 0 6 3 3 0 0 1 0-6z"/></mask><filter id="5z5gc" width="58" height="58" x="264" y="781" filterUnits="userSpaceOnUse"><feOffset in="SourceGraphic" result="FeOffset1685Out"/><feGaussianBlur in="FeOffset1685Out" result="FeGaussianBlur1686Out" stdDeviation="6.16 6.16"/></filter><mask id="5z5gf" width="2.2" height="2.2" x="-1.1" y="-1.1"><path fill="#fff" d="M289.4 11.4h7.2v7.2h-7.2z"/><path d="M293 12a3 3 0 1 1 0 6 3 3 0 0 1 0-6z"/></mask><filter id="5z5ge" width="58" height="58" x="264" y="-14" filterUnits="userSpaceOnUse"><feOffset in="SourceGraphic" result="FeOffset1707Out"/><feGaussianBlur in="FeOffset1707Out" result="FeGaussianBlur1708Out" stdDeviation="6.16 6.16"/></filter><mask id="5z5gh" width="2.2" height="2.2" x="-1.1" y="-1.1"><path fill="#fff" d="M1149.4 41.4h7.2v7.2h-7.2z"/><path d="M1153 42a3 3 0 1 1 0 6 3 3 0 0 1 0-6z"/></mask><filter id="5z5gg" width="58" height="58" x="1124" y="16" filterUnits="userSpaceOnUse"><feOffset in="SourceGraphic" result="FeOffset1729Out"/><feGaussianBlur in="FeOffset1729Out" result="FeGaussianBlur1730Out" stdDeviation="6.16 6.16"/></filter><mask id="5z5gj" width="2.2" height="2.2" x="-1.1" y="-1.1"><path fill="#fff" d="M872.4 752.4h7.2v7.2h-7.2z"/><path d="M876 753a3 3 0 1 1 0 6 3 3 0 0 1 0-6z"/></mask><filter id="5z5gi" width="58" height="58" x="847" y="727" filterUnits="userSpaceOnUse"><feOffset in="SourceGraphic" result="FeOffset1751Out"/><feGaussianBlur in="FeOffset1751Out" result="FeGaussianBlur1752Out" stdDeviation="6.16 6.16"/></filter></defs><g><g><g><g filter="url(#5z5ga)"><path fill="none" stroke="#5f8cc7" stroke-width="1.2" d="M15 682a3 3 0 1 1 0 6 3 3 0 0 1 0-6z" mask="url(&quot;#5z5gb&quot;)"/><path fill="#5f8cc7" d="M15 682a3 3 0 1 1 0 6 3 3 0 0 1 0-6z"/></g><g filter="url(#5z5ga)"><path fill="none" stroke="#5f8cc7" stroke-width="1.2" d="M15 682a3 3 0 1 1 0 6 3 3 0 0 1 0-6z" mask="url(&quot;#5z5gb&quot;)"/><path fill="#5f8cc7" d="M15 682a3 3 0 1 1 0 6 3 3 0 0 1 0-6z"/></g><path fill="#5f8cc7" d="M15 682a3 3 0 1 1 0 6 3 3 0 0 1 0-6z"/></g><g><g filter="url(#5z5gc)"><path fill="none" stroke="#5f8cc7" stroke-width="1.2" d="M293 807a3 3 0 1 1 0 6 3 3 0 0 1 0-6z" mask="url(&quot;#5z5gd&quot;)"/><path fill="#5f8cc7" d="M293 807a3 3 0 1 1 0 6 3 3 0 0 1 0-6z"/></g><g filter="url(#5z5gc)"><path fill="none" stroke="#5f8cc7" stroke-width="1.2" d="M293 807a3 3 0 1 1 0 6 3 3 0 0 1 0-6z" mask="url(&quot;#5z5gd&quot;)"/><path fill="#5f8cc7" d="M293 807a3 3 0 1 1 0 6 3 3 0 0 1 0-6z"/></g><path fill="#5f8cc7" d="M293 807a3 3 0 1 1 0 6 3 3 0 0 1 0-6z"/></g><g><g filter="url(#5z5ge)"><path fill="none" stroke="#5f8cc7" stroke-width="1.2" d="M293 12a3 3 0 1 1 0 6 3 3 0 0 1 0-6z" mask="url(&quot;#5z5gf&quot;)"/><path fill="#5f8cc7" d="M293 12a3 3 0 1 1 0 6 3 3 0 0 1 0-6z"/></g><g filter="url(#5z5ge)"><path fill="none" stroke="#5f8cc7" stroke-width="1.2" d="M293 12a3 3 0 1 1 0 6 3 3 0 0 1 0-6z" mask="url(&quot;#5z5gf&quot;)"/><path fill="#5f8cc7" d="M293 12a3 3 0 1 1 0 6 3 3 0 0 1 0-6z"/></g><path fill="#5f8cc7" d="M293 12a3 3 0 1 1 0 6 3 3 0 0 1 0-6z"/></g><g><g filter="url(#5z5gg)"><path fill="none" stroke="#5f8cc7" stroke-width="1.2" d="M1153 42a3 3 0 1 1 0 6 3 3 0 0 1 0-6z" mask="url(&quot;#5z5gh&quot;)"/><path fill="#5f8cc7" d="M1153 42a3 3 0 1 1 0 6 3 3 0 0 1 0-6z"/></g><g filter="url(#5z5gg)"><path fill="none" stroke="#5f8cc7" stroke-width="1.2" d="M1153 42a3 3 0 1 1 0 6 3 3 0 0 1 0-6z" mask="url(&quot;#5z5gh&quot;)"/><path fill="#5f8cc7" d="M1153 42a3 3 0 1 1 0 6 3 3 0 0 1 0-6z"/></g><path fill="#5f8cc7" d="M1153 42a3 3 0 1 1 0 6 3 3 0 0 1 0-6z"/></g><g><g filter="url(#5z5gi)"><path fill="none" stroke="#5f8cc7" stroke-width="1.2" d="M876 753a3 3 0 1 1 0 6 3 3 0 0 1 0-6z" mask="url(&quot;#5z5gj&quot;)"/><path fill="#5f8cc7" d="M876 753a3 3 0 1 1 0 6 3 3 0 0 1 0-6z"/></g><g filter="url(#5z5gi)"><path fill="none" stroke="#5f8cc7" stroke-width="1.2" d="M876 753a3 3 0 1 1 0 6 3 3 0 0 1 0-6z" mask="url(&quot;#5z5gj&quot;)"/><path fill="#5f8cc7" d="M876 753a3 3 0 1 1 0 6 3 3 0 0 1 0-6z"/></g><path fill="#5f8cc7" d="M876 753a3 3 0 1 1 0 6 3 3 0 0 1 0-6z"/></g></g></g></svg>