<svg xmlns="http://www.w3.org/2000/svg" width="215" height="360" viewBox="0 0 215 360"><defs><clipPath id="orata"><path fill="#fff" d="M207.719 0c3.555 0 6.437 2.82 6.437 6.297 0 3.478-2.882 6.297-6.437 6.297-3.556 0-6.438-2.82-6.438-6.297 0-3.478 2.882-6.297 6.438-6.297z"/></clipPath><clipPath id="oratb"><path fill="#fff" d="M158.313 0c3.555 0 6.437 2.82 6.437 6.297 0 3.478-2.882 6.297-6.437 6.297-3.556 0-6.438-2.82-6.438-6.297 0-3.478 2.882-6.297 6.438-6.297z"/></clipPath><clipPath id="oratc"><path fill="#fff" d="M107.094 0c3.52 0 6.375 2.82 6.375 6.297 0 3.478-2.854 6.297-6.375 6.297s-6.375-2.82-6.375-6.297c0-3.478 2.854-6.297 6.375-6.297z"/></clipPath><clipPath id="oratd"><path fill="#fff" d="M57.64 0C61.154 0 64 2.82 64 6.297c0 3.478-2.847 6.297-6.36 6.297-3.512 0-6.359-2.82-6.359-6.297 0-3.478 2.847-6.297 6.36-6.297z"/></clipPath><clipPath id="orate"><path fill="#fff" d="M6.453 0c3.53 0 6.39 2.82 6.39 6.297 0 3.478-2.86 6.297-6.39 6.297S.063 9.774.063 6.297C.062 2.819 2.922 0 6.452 0z"/></clipPath><clipPath id="oratf"><path fill="#fff" d="M207.719 43c3.555 0 6.437 2.82 6.437 6.297 0 3.478-2.882 6.297-6.437 6.297-3.556 0-6.438-2.82-6.438-6.297 0-3.478 2.882-6.297 6.438-6.297z"/></clipPath><clipPath id="oratg"><path fill="#fff" d="M158.313 43c3.555 0 6.437 2.82 6.437 6.297 0 3.478-2.882 6.297-6.437 6.297-3.556 0-6.438-2.82-6.438-6.297 0-3.478 2.882-6.297 6.438-6.297z"/></clipPath><clipPath id="orath"><path fill="#fff" d="M107.094 43c3.52 0 6.375 2.82 6.375 6.297 0 3.478-2.854 6.297-6.375 6.297s-6.375-2.82-6.375-6.297c0-3.478 2.854-6.297 6.375-6.297z"/></clipPath><clipPath id="orati"><path fill="#fff" d="M57.64 43c3.513 0 6.36 2.82 6.36 6.297 0 3.478-2.847 6.297-6.36 6.297-3.512 0-6.359-2.82-6.359-6.297 0-3.478 2.847-6.297 6.36-6.297z"/></clipPath><clipPath id="oratj"><path fill="#fff" d="M6.453 43c3.53 0 6.39 2.82 6.39 6.297 0 3.478-2.86 6.297-6.39 6.297s-6.39-2.82-6.39-6.297c0-3.478 2.86-6.297 6.39-6.297z"/></clipPath><clipPath id="oratk"><path fill="#fff" d="M207.719 86c3.555 0 6.437 2.82 6.437 6.297 0 3.478-2.882 6.297-6.437 6.297-3.556 0-6.438-2.82-6.438-6.297 0-3.478 2.882-6.297 6.438-6.297z"/></clipPath><clipPath id="oratl"><path fill="#fff" d="M158.313 86c3.555 0 6.437 2.82 6.437 6.297 0 3.478-2.882 6.297-6.437 6.297-3.556 0-6.438-2.82-6.438-6.297 0-3.478 2.882-6.297 6.438-6.297z"/></clipPath><clipPath id="oratm"><path fill="#fff" d="M107.094 86c3.52 0 6.375 2.82 6.375 6.297 0 3.478-2.854 6.297-6.375 6.297s-6.375-2.82-6.375-6.297c0-3.478 2.854-6.297 6.375-6.297z"/></clipPath><clipPath id="oratn"><path fill="#fff" d="M57.64 86c3.513 0 6.36 2.82 6.36 6.297 0 3.478-2.847 6.297-6.36 6.297-3.512 0-6.359-2.82-6.359-6.297 0-3.478 2.847-6.297 6.36-6.297z"/></clipPath><clipPath id="orato"><path fill="#fff" d="M6.453 86c3.53 0 6.39 2.82 6.39 6.297 0 3.478-2.86 6.297-6.39 6.297s-6.39-2.82-6.39-6.297c0-3.478 2.86-6.297 6.39-6.297z"/></clipPath><clipPath id="oratp"><path fill="#fff" d="M207.719 130c3.555 0 6.437 2.82 6.437 6.297 0 3.478-2.882 6.297-6.437 6.297-3.556 0-6.438-2.82-6.438-6.297 0-3.478 2.882-6.297 6.438-6.297z"/></clipPath><clipPath id="oratq"><path fill="#fff" d="M158.313 130c3.555 0 6.437 2.82 6.437 6.297 0 3.478-2.882 6.297-6.437 6.297-3.556 0-6.438-2.82-6.438-6.297 0-3.478 2.882-6.297 6.438-6.297z"/></clipPath><clipPath id="oratr"><path fill="#fff" d="M107.094 130c3.52 0 6.375 2.82 6.375 6.297 0 3.478-2.854 6.297-6.375 6.297s-6.375-2.82-6.375-6.297c0-3.478 2.854-6.297 6.375-6.297z"/></clipPath><clipPath id="orats"><path fill="#fff" d="M57.64 130c3.513 0 6.36 2.82 6.36 6.297 0 3.478-2.847 6.297-6.36 6.297-3.512 0-6.359-2.82-6.359-6.297 0-3.478 2.847-6.297 6.36-6.297z"/></clipPath><clipPath id="oratt"><path fill="#fff" d="M6.453 130c3.53 0 6.39 2.82 6.39 6.297 0 3.478-2.86 6.297-6.39 6.297s-6.39-2.82-6.39-6.297c0-3.478 2.86-6.297 6.39-6.297z"/></clipPath><clipPath id="oratu"><path fill="#fff" d="M207.719 173c3.555 0 6.437 2.82 6.437 6.297 0 3.478-2.882 6.297-6.437 6.297-3.556 0-6.438-2.82-6.438-6.297 0-3.478 2.882-6.297 6.438-6.297z"/></clipPath><clipPath id="oratv"><path fill="#fff" d="M158.313 173c3.555 0 6.437 2.82 6.437 6.297 0 3.478-2.882 6.297-6.437 6.297-3.556 0-6.438-2.82-6.438-6.297 0-3.478 2.882-6.297 6.438-6.297z"/></clipPath><clipPath id="oratw"><path fill="#fff" d="M107.094 173c3.52 0 6.375 2.82 6.375 6.297 0 3.478-2.854 6.297-6.375 6.297s-6.375-2.82-6.375-6.297c0-3.478 2.854-6.297 6.375-6.297z"/></clipPath><clipPath id="oratx"><path fill="#fff" d="M57.64 173c3.513 0 6.36 2.82 6.36 6.297 0 3.478-2.847 6.297-6.36 6.297-3.512 0-6.359-2.82-6.359-6.297 0-3.478 2.847-6.297 6.36-6.297z"/></clipPath><clipPath id="oraty"><path fill="#fff" d="M6.453 173c3.53 0 6.39 2.82 6.39 6.297 0 3.478-2.86 6.297-6.39 6.297s-6.39-2.82-6.39-6.297c0-3.478 2.86-6.297 6.39-6.297z"/></clipPath><clipPath id="oratz"><path fill="#fff" d="M207.719 216c3.555 0 6.437 2.82 6.437 6.297 0 3.478-2.882 6.297-6.437 6.297-3.556 0-6.438-2.82-6.438-6.297 0-3.478 2.882-6.297 6.438-6.297z"/></clipPath><clipPath id="oratA"><path fill="#fff" d="M158.313 216c3.555 0 6.437 2.82 6.437 6.297 0 3.478-2.882 6.297-6.437 6.297-3.556 0-6.438-2.82-6.438-6.297 0-3.478 2.882-6.297 6.438-6.297z"/></clipPath><clipPath id="oratB"><path fill="#fff" d="M107.094 216c3.52 0 6.375 2.82 6.375 6.297 0 3.478-2.854 6.297-6.375 6.297s-6.375-2.82-6.375-6.297c0-3.478 2.854-6.297 6.375-6.297z"/></clipPath><clipPath id="oratC"><path fill="#fff" d="M57.64 216c3.513 0 6.36 2.82 6.36 6.297 0 3.478-2.847 6.297-6.36 6.297-3.512 0-6.359-2.82-6.359-6.297 0-3.478 2.847-6.297 6.36-6.297z"/></clipPath><clipPath id="oratD"><path fill="#fff" d="M6.453 216c3.53 0 6.39 2.82 6.39 6.297 0 3.478-2.86 6.297-6.39 6.297s-6.39-2.82-6.39-6.297c0-3.478 2.86-6.297 6.39-6.297z"/></clipPath><clipPath id="oratE"><path fill="#fff" d="M207.719 261c3.555 0 6.437 2.82 6.437 6.297 0 3.478-2.882 6.297-6.437 6.297-3.556 0-6.438-2.82-6.438-6.297 0-3.478 2.882-6.297 6.438-6.297z"/></clipPath><clipPath id="oratF"><path fill="#fff" d="M158.313 261c3.555 0 6.437 2.82 6.437 6.297 0 3.478-2.882 6.297-6.437 6.297-3.556 0-6.438-2.82-6.438-6.297 0-3.478 2.882-6.297 6.438-6.297z"/></clipPath><clipPath id="oratG"><path fill="#fff" d="M107.094 261c3.52 0 6.375 2.82 6.375 6.297 0 3.478-2.854 6.297-6.375 6.297s-6.375-2.82-6.375-6.297c0-3.478 2.854-6.297 6.375-6.297z"/></clipPath><clipPath id="oratH"><path fill="#fff" d="M57.64 261c3.513 0 6.36 2.82 6.36 6.297 0 3.478-2.847 6.297-6.36 6.297-3.512 0-6.359-2.82-6.359-6.297 0-3.478 2.847-6.297 6.36-6.297z"/></clipPath><clipPath id="oratI"><path fill="#fff" d="M6.453 261c3.53 0 6.39 2.82 6.39 6.297 0 3.478-2.86 6.297-6.39 6.297s-6.39-2.82-6.39-6.297c0-3.478 2.86-6.297 6.39-6.297z"/></clipPath><clipPath id="oratJ"><path fill="#fff" d="M207.719 304c3.555 0 6.437 2.82 6.437 6.297s-2.882 6.297-6.437 6.297c-3.556 0-6.438-2.82-6.438-6.297 0-3.478 2.882-6.297 6.438-6.297z"/></clipPath><clipPath id="oratK"><path fill="#fff" d="M158.313 304c3.555 0 6.437 2.82 6.437 6.297s-2.882 6.297-6.437 6.297c-3.556 0-6.438-2.82-6.438-6.297 0-3.478 2.882-6.297 6.438-6.297z"/></clipPath><clipPath id="oratL"><path fill="#fff" d="M107.094 304c3.52 0 6.375 2.82 6.375 6.297s-2.854 6.297-6.375 6.297-6.375-2.82-6.375-6.297c0-3.478 2.854-6.297 6.375-6.297z"/></clipPath><clipPath id="oratM"><path fill="#fff" d="M57.64 304c3.513 0 6.36 2.82 6.36 6.297s-2.847 6.297-6.36 6.297c-3.512 0-6.359-2.82-6.359-6.297 0-3.478 2.847-6.297 6.36-6.297z"/></clipPath><clipPath id="oratN"><path fill="#fff" d="M6.453 304c3.53 0 6.39 2.82 6.39 6.297s-2.86 6.297-6.39 6.297-6.39-2.82-6.39-6.297c0-3.478 2.86-6.297 6.39-6.297z"/></clipPath><clipPath id="oratO"><path fill="#fff" d="M207.719 347c3.555 0 6.437 2.82 6.437 6.297 0 3.478-2.882 6.297-6.437 6.297-3.556 0-6.438-2.82-6.438-6.297 0-3.478 2.882-6.297 6.438-6.297z"/></clipPath><clipPath id="oratP"><path fill="#fff" d="M158.313 347c3.555 0 6.437 2.82 6.437 6.297 0 3.478-2.882 6.297-6.437 6.297-3.556 0-6.438-2.82-6.438-6.297 0-3.478 2.882-6.297 6.438-6.297z"/></clipPath><clipPath id="oratQ"><path fill="#fff" d="M107.094 347c3.52 0 6.375 2.82 6.375 6.297 0 3.478-2.854 6.297-6.375 6.297s-6.375-2.82-6.375-6.297c0-3.478 2.854-6.297 6.375-6.297z"/></clipPath><clipPath id="oratR"><path fill="#fff" d="M57.64 347c3.513 0 6.36 2.82 6.36 6.297 0 3.478-2.847 6.297-6.36 6.297-3.512 0-6.359-2.82-6.359-6.297 0-3.478 2.847-6.297 6.36-6.297z"/></clipPath><clipPath id="oratS"><path fill="#fff" d="M6.453 347c3.53 0 6.39 2.82 6.39 6.297 0 3.478-2.86 6.297-6.39 6.297s-6.39-2.82-6.39-6.297c0-3.478 2.86-6.297 6.39-6.297z"/></clipPath></defs><g><g opacity=".7"><g opacity=".7"><path fill="none" stroke="#c6c9cc" stroke-miterlimit="20" stroke-width="2" d="M207.719 0c3.555 0 6.437 2.82 6.437 6.297 0 3.478-2.882 6.297-6.437 6.297-3.556 0-6.438-2.82-6.438-6.297 0-3.478 2.882-6.297 6.438-6.297z" clip-path="url(&quot;#orata&quot;)"/></g><g opacity=".7"><path fill="none" stroke="#c6c9cc" stroke-miterlimit="20" stroke-width="2" d="M158.313 0c3.555 0 6.437 2.82 6.437 6.297 0 3.478-2.882 6.297-6.437 6.297-3.556 0-6.438-2.82-6.438-6.297 0-3.478 2.882-6.297 6.438-6.297z" clip-path="url(&quot;#oratb&quot;)"/></g><g opacity=".7"><path fill="none" stroke="#c6c9cc" stroke-miterlimit="20" stroke-width="2" d="M107.094 0c3.52 0 6.375 2.82 6.375 6.297 0 3.478-2.854 6.297-6.375 6.297s-6.375-2.82-6.375-6.297c0-3.478 2.854-6.297 6.375-6.297z" clip-path="url(&quot;#oratc&quot;)"/></g><g opacity=".7"><path fill="none" stroke="#c6c9cc" stroke-miterlimit="20" stroke-width="2" d="M57.64 0C61.154 0 64 2.82 64 6.297c0 3.478-2.847 6.297-6.36 6.297-3.512 0-6.359-2.82-6.359-6.297 0-3.478 2.847-6.297 6.36-6.297z" clip-path="url(&quot;#oratd&quot;)"/></g><g opacity=".7"><path fill="none" stroke="#c6c9cc" stroke-miterlimit="20" stroke-width="2" d="M6.453 0c3.53 0 6.39 2.82 6.39 6.297 0 3.478-2.86 6.297-6.39 6.297S.063 9.774.063 6.297C.062 2.819 2.922 0 6.452 0z" clip-path="url(&quot;#orate&quot;)"/></g><g opacity=".7"><path fill="none" stroke="#c6c9cc" stroke-miterlimit="20" stroke-width="2" d="M207.719 43c3.555 0 6.437 2.82 6.437 6.297 0 3.478-2.882 6.297-6.437 6.297-3.556 0-6.438-2.82-6.438-6.297 0-3.478 2.882-6.297 6.438-6.297z" clip-path="url(&quot;#oratf&quot;)"/></g><g opacity=".7"><path fill="none" stroke="#c6c9cc" stroke-miterlimit="20" stroke-width="2" d="M158.313 43c3.555 0 6.437 2.82 6.437 6.297 0 3.478-2.882 6.297-6.437 6.297-3.556 0-6.438-2.82-6.438-6.297 0-3.478 2.882-6.297 6.438-6.297z" clip-path="url(&quot;#oratg&quot;)"/></g><g opacity=".7"><path fill="none" stroke="#c6c9cc" stroke-miterlimit="20" stroke-width="2" d="M107.094 43c3.52 0 6.375 2.82 6.375 6.297 0 3.478-2.854 6.297-6.375 6.297s-6.375-2.82-6.375-6.297c0-3.478 2.854-6.297 6.375-6.297z" clip-path="url(&quot;#orath&quot;)"/></g><g opacity=".7"><path fill="none" stroke="#c6c9cc" stroke-miterlimit="20" stroke-width="2" d="M57.64 43c3.513 0 6.36 2.82 6.36 6.297 0 3.478-2.847 6.297-6.36 6.297-3.512 0-6.359-2.82-6.359-6.297 0-3.478 2.847-6.297 6.36-6.297z" clip-path="url(&quot;#orati&quot;)"/></g><g opacity=".7"><path fill="none" stroke="#c6c9cc" stroke-miterlimit="20" stroke-width="2" d="M6.453 43c3.53 0 6.39 2.82 6.39 6.297 0 3.478-2.86 6.297-6.39 6.297s-6.39-2.82-6.39-6.297c0-3.478 2.86-6.297 6.39-6.297z" clip-path="url(&quot;#oratj&quot;)"/></g><g opacity=".7"><path fill="none" stroke="#c6c9cc" stroke-miterlimit="20" stroke-width="2" d="M207.719 86c3.555 0 6.437 2.82 6.437 6.297 0 3.478-2.882 6.297-6.437 6.297-3.556 0-6.438-2.82-6.438-6.297 0-3.478 2.882-6.297 6.438-6.297z" clip-path="url(&quot;#oratk&quot;)"/></g><g opacity=".7"><path fill="none" stroke="#c6c9cc" stroke-miterlimit="20" stroke-width="2" d="M158.313 86c3.555 0 6.437 2.82 6.437 6.297 0 3.478-2.882 6.297-6.437 6.297-3.556 0-6.438-2.82-6.438-6.297 0-3.478 2.882-6.297 6.438-6.297z" clip-path="url(&quot;#oratl&quot;)"/></g><g opacity=".7"><path fill="none" stroke="#c6c9cc" stroke-miterlimit="20" stroke-width="2" d="M107.094 86c3.52 0 6.375 2.82 6.375 6.297 0 3.478-2.854 6.297-6.375 6.297s-6.375-2.82-6.375-6.297c0-3.478 2.854-6.297 6.375-6.297z" clip-path="url(&quot;#oratm&quot;)"/></g><g opacity=".7"><path fill="none" stroke="#c6c9cc" stroke-miterlimit="20" stroke-width="2" d="M57.64 86c3.513 0 6.36 2.82 6.36 6.297 0 3.478-2.847 6.297-6.36 6.297-3.512 0-6.359-2.82-6.359-6.297 0-3.478 2.847-6.297 6.36-6.297z" clip-path="url(&quot;#oratn&quot;)"/></g><g opacity=".7"><path fill="none" stroke="#c6c9cc" stroke-miterlimit="20" stroke-width="2" d="M6.453 86c3.53 0 6.39 2.82 6.39 6.297 0 3.478-2.86 6.297-6.39 6.297s-6.39-2.82-6.39-6.297c0-3.478 2.86-6.297 6.39-6.297z" clip-path="url(&quot;#orato&quot;)"/></g><g opacity=".7"><path fill="none" stroke="#c6c9cc" stroke-miterlimit="20" stroke-width="2" d="M207.719 130c3.555 0 6.437 2.82 6.437 6.297 0 3.478-2.882 6.297-6.437 6.297-3.556 0-6.438-2.82-6.438-6.297 0-3.478 2.882-6.297 6.438-6.297z" clip-path="url(&quot;#oratp&quot;)"/></g><g opacity=".7"><path fill="none" stroke="#c6c9cc" stroke-miterlimit="20" stroke-width="2" d="M158.313 130c3.555 0 6.437 2.82 6.437 6.297 0 3.478-2.882 6.297-6.437 6.297-3.556 0-6.438-2.82-6.438-6.297 0-3.478 2.882-6.297 6.438-6.297z" clip-path="url(&quot;#oratq&quot;)"/></g><g opacity=".7"><path fill="none" stroke="#c6c9cc" stroke-miterlimit="20" stroke-width="2" d="M107.094 130c3.52 0 6.375 2.82 6.375 6.297 0 3.478-2.854 6.297-6.375 6.297s-6.375-2.82-6.375-6.297c0-3.478 2.854-6.297 6.375-6.297z" clip-path="url(&quot;#oratr&quot;)"/></g><g opacity=".7"><path fill="none" stroke="#c6c9cc" stroke-miterlimit="20" stroke-width="2" d="M57.64 130c3.513 0 6.36 2.82 6.36 6.297 0 3.478-2.847 6.297-6.36 6.297-3.512 0-6.359-2.82-6.359-6.297 0-3.478 2.847-6.297 6.36-6.297z" clip-path="url(&quot;#orats&quot;)"/></g><g opacity=".7"><path fill="none" stroke="#c6c9cc" stroke-miterlimit="20" stroke-width="2" d="M6.453 130c3.53 0 6.39 2.82 6.39 6.297 0 3.478-2.86 6.297-6.39 6.297s-6.39-2.82-6.39-6.297c0-3.478 2.86-6.297 6.39-6.297z" clip-path="url(&quot;#oratt&quot;)"/></g><g opacity=".7"><path fill="none" stroke="#c6c9cc" stroke-miterlimit="20" stroke-width="2" d="M207.719 173c3.555 0 6.437 2.82 6.437 6.297 0 3.478-2.882 6.297-6.437 6.297-3.556 0-6.438-2.82-6.438-6.297 0-3.478 2.882-6.297 6.438-6.297z" clip-path="url(&quot;#oratu&quot;)"/></g><g opacity=".7"><path fill="none" stroke="#c6c9cc" stroke-miterlimit="20" stroke-width="2" d="M158.313 173c3.555 0 6.437 2.82 6.437 6.297 0 3.478-2.882 6.297-6.437 6.297-3.556 0-6.438-2.82-6.438-6.297 0-3.478 2.882-6.297 6.438-6.297z" clip-path="url(&quot;#oratv&quot;)"/></g><g opacity=".7"><path fill="none" stroke="#c6c9cc" stroke-miterlimit="20" stroke-width="2" d="M107.094 173c3.52 0 6.375 2.82 6.375 6.297 0 3.478-2.854 6.297-6.375 6.297s-6.375-2.82-6.375-6.297c0-3.478 2.854-6.297 6.375-6.297z" clip-path="url(&quot;#oratw&quot;)"/></g><g opacity=".7"><path fill="none" stroke="#c6c9cc" stroke-miterlimit="20" stroke-width="2" d="M57.64 173c3.513 0 6.36 2.82 6.36 6.297 0 3.478-2.847 6.297-6.36 6.297-3.512 0-6.359-2.82-6.359-6.297 0-3.478 2.847-6.297 6.36-6.297z" clip-path="url(&quot;#oratx&quot;)"/></g><g opacity=".7"><path fill="none" stroke="#c6c9cc" stroke-miterlimit="20" stroke-width="2" d="M6.453 173c3.53 0 6.39 2.82 6.39 6.297 0 3.478-2.86 6.297-6.39 6.297s-6.39-2.82-6.39-6.297c0-3.478 2.86-6.297 6.39-6.297z" clip-path="url(&quot;#oraty&quot;)"/></g><g opacity=".7"><path fill="none" stroke="#c6c9cc" stroke-miterlimit="20" stroke-width="2" d="M207.719 216c3.555 0 6.437 2.82 6.437 6.297 0 3.478-2.882 6.297-6.437 6.297-3.556 0-6.438-2.82-6.438-6.297 0-3.478 2.882-6.297 6.438-6.297z" clip-path="url(&quot;#oratz&quot;)"/></g><g opacity=".7"><path fill="none" stroke="#c6c9cc" stroke-miterlimit="20" stroke-width="2" d="M158.313 216c3.555 0 6.437 2.82 6.437 6.297 0 3.478-2.882 6.297-6.437 6.297-3.556 0-6.438-2.82-6.438-6.297 0-3.478 2.882-6.297 6.438-6.297z" clip-path="url(&quot;#oratA&quot;)"/></g><g opacity=".7"><path fill="none" stroke="#c6c9cc" stroke-miterlimit="20" stroke-width="2" d="M107.094 216c3.52 0 6.375 2.82 6.375 6.297 0 3.478-2.854 6.297-6.375 6.297s-6.375-2.82-6.375-6.297c0-3.478 2.854-6.297 6.375-6.297z" clip-path="url(&quot;#oratB&quot;)"/></g><g opacity=".7"><path fill="none" stroke="#c6c9cc" stroke-miterlimit="20" stroke-width="2" d="M57.64 216c3.513 0 6.36 2.82 6.36 6.297 0 3.478-2.847 6.297-6.36 6.297-3.512 0-6.359-2.82-6.359-6.297 0-3.478 2.847-6.297 6.36-6.297z" clip-path="url(&quot;#oratC&quot;)"/></g><g opacity=".7"><path fill="none" stroke="#c6c9cc" stroke-miterlimit="20" stroke-width="2" d="M6.453 216c3.53 0 6.39 2.82 6.39 6.297 0 3.478-2.86 6.297-6.39 6.297s-6.39-2.82-6.39-6.297c0-3.478 2.86-6.297 6.39-6.297z" clip-path="url(&quot;#oratD&quot;)"/></g><g opacity=".7"><path fill="none" stroke="#c6c9cc" stroke-miterlimit="20" stroke-width="2" d="M207.719 261c3.555 0 6.437 2.82 6.437 6.297 0 3.478-2.882 6.297-6.437 6.297-3.556 0-6.438-2.82-6.438-6.297 0-3.478 2.882-6.297 6.438-6.297z" clip-path="url(&quot;#oratE&quot;)"/></g><g opacity=".7"><path fill="none" stroke="#c6c9cc" stroke-miterlimit="20" stroke-width="2" d="M158.313 261c3.555 0 6.437 2.82 6.437 6.297 0 3.478-2.882 6.297-6.437 6.297-3.556 0-6.438-2.82-6.438-6.297 0-3.478 2.882-6.297 6.438-6.297z" clip-path="url(&quot;#oratF&quot;)"/></g><g opacity=".7"><path fill="none" stroke="#c6c9cc" stroke-miterlimit="20" stroke-width="2" d="M107.094 261c3.52 0 6.375 2.82 6.375 6.297 0 3.478-2.854 6.297-6.375 6.297s-6.375-2.82-6.375-6.297c0-3.478 2.854-6.297 6.375-6.297z" clip-path="url(&quot;#oratG&quot;)"/></g><g opacity=".7"><path fill="none" stroke="#c6c9cc" stroke-miterlimit="20" stroke-width="2" d="M57.64 261c3.513 0 6.36 2.82 6.36 6.297 0 3.478-2.847 6.297-6.36 6.297-3.512 0-6.359-2.82-6.359-6.297 0-3.478 2.847-6.297 6.36-6.297z" clip-path="url(&quot;#oratH&quot;)"/></g><g opacity=".7"><path fill="none" stroke="#c6c9cc" stroke-miterlimit="20" stroke-width="2" d="M6.453 261c3.53 0 6.39 2.82 6.39 6.297 0 3.478-2.86 6.297-6.39 6.297s-6.39-2.82-6.39-6.297c0-3.478 2.86-6.297 6.39-6.297z" clip-path="url(&quot;#oratI&quot;)"/></g><g opacity=".7"><path fill="none" stroke="#c6c9cc" stroke-miterlimit="20" stroke-width="2" d="M207.719 304c3.555 0 6.437 2.82 6.437 6.297s-2.882 6.297-6.437 6.297c-3.556 0-6.438-2.82-6.438-6.297 0-3.478 2.882-6.297 6.438-6.297z" clip-path="url(&quot;#oratJ&quot;)"/></g><g opacity=".7"><path fill="none" stroke="#c6c9cc" stroke-miterlimit="20" stroke-width="2" d="M158.313 304c3.555 0 6.437 2.82 6.437 6.297s-2.882 6.297-6.437 6.297c-3.556 0-6.438-2.82-6.438-6.297 0-3.478 2.882-6.297 6.438-6.297z" clip-path="url(&quot;#oratK&quot;)"/></g><g opacity=".7"><path fill="none" stroke="#c6c9cc" stroke-miterlimit="20" stroke-width="2" d="M107.094 304c3.52 0 6.375 2.82 6.375 6.297s-2.854 6.297-6.375 6.297-6.375-2.82-6.375-6.297c0-3.478 2.854-6.297 6.375-6.297z" clip-path="url(&quot;#oratL&quot;)"/></g><g opacity=".7"><path fill="none" stroke="#c6c9cc" stroke-miterlimit="20" stroke-width="2" d="M57.64 304c3.513 0 6.36 2.82 6.36 6.297s-2.847 6.297-6.36 6.297c-3.512 0-6.359-2.82-6.359-6.297 0-3.478 2.847-6.297 6.36-6.297z" clip-path="url(&quot;#oratM&quot;)"/></g><g opacity=".7"><path fill="none" stroke="#c6c9cc" stroke-miterlimit="20" stroke-width="2" d="M6.453 304c3.53 0 6.39 2.82 6.39 6.297s-2.86 6.297-6.39 6.297-6.39-2.82-6.39-6.297c0-3.478 2.86-6.297 6.39-6.297z" clip-path="url(&quot;#oratN&quot;)"/></g><g opacity=".7"><path fill="none" stroke="#c6c9cc" stroke-miterlimit="20" stroke-width="2" d="M207.719 347c3.555 0 6.437 2.82 6.437 6.297 0 3.478-2.882 6.297-6.437 6.297-3.556 0-6.438-2.82-6.438-6.297 0-3.478 2.882-6.297 6.438-6.297z" clip-path="url(&quot;#oratO&quot;)"/></g><g opacity=".7"><path fill="none" stroke="#c6c9cc" stroke-miterlimit="20" stroke-width="2" d="M158.313 347c3.555 0 6.437 2.82 6.437 6.297 0 3.478-2.882 6.297-6.437 6.297-3.556 0-6.438-2.82-6.438-6.297 0-3.478 2.882-6.297 6.438-6.297z" clip-path="url(&quot;#oratP&quot;)"/></g><g opacity=".7"><path fill="none" stroke="#c6c9cc" stroke-miterlimit="20" stroke-width="2" d="M107.094 347c3.52 0 6.375 2.82 6.375 6.297 0 3.478-2.854 6.297-6.375 6.297s-6.375-2.82-6.375-6.297c0-3.478 2.854-6.297 6.375-6.297z" clip-path="url(&quot;#oratQ&quot;)"/></g><g opacity=".7"><path fill="none" stroke="#c6c9cc" stroke-miterlimit="20" stroke-width="2" d="M57.64 347c3.513 0 6.36 2.82 6.36 6.297 0 3.478-2.847 6.297-6.36 6.297-3.512 0-6.359-2.82-6.359-6.297 0-3.478 2.847-6.297 6.36-6.297z" clip-path="url(&quot;#oratR&quot;)"/></g><g opacity=".7"><path fill="none" stroke="#c6c9cc" stroke-miterlimit="20" stroke-width="2" d="M6.453 347c3.53 0 6.39 2.82 6.39 6.297 0 3.478-2.86 6.297-6.39 6.297s-6.39-2.82-6.39-6.297c0-3.478 2.86-6.297 6.39-6.297z" clip-path="url(&quot;#oratS&quot;)"/></g></g></g></svg>