<svg xmlns="http://www.w3.org/2000/svg" width="334" height="380" viewBox="0 0 334 380"><defs><clipPath id="e19wa"><path fill="#fff" d="M61.281 0c3.556 0 6.438 2.82 6.438 6.297 0 3.478-2.882 6.297-6.438 6.297-3.555 0-6.437-2.82-6.437-6.297C54.844 2.819 57.726 0 61.28 0z"/></clipPath><clipPath id="e19wb"><path fill="#fff" d="M110.688 0c3.555 0 6.437 2.82 6.437 6.297 0 3.478-2.882 6.297-6.437 6.297-3.556 0-6.438-2.82-6.438-6.297 0-3.478 2.882-6.297 6.438-6.297z"/></clipPath><clipPath id="e19wc"><path fill="#fff" d="M161.906 0c3.521 0 6.375 2.82 6.375 6.297 0 3.478-2.854 6.297-6.375 6.297-3.52 0-6.375-2.82-6.375-6.297 0-3.478 2.854-6.297 6.375-6.297z"/></clipPath><clipPath id="e19wd"><path fill="#fff" d="M211.36 0c3.512 0 6.359 2.82 6.359 6.297 0 3.478-2.847 6.297-6.36 6.297-3.512 0-6.359-2.82-6.359-6.297C205 2.819 207.847 0 211.36 0z"/></clipPath><clipPath id="e19we"><path fill="#fff" d="M262.547 0c3.53 0 6.39 2.82 6.39 6.297 0 3.478-2.86 6.297-6.39 6.297s-6.39-2.82-6.39-6.297c0-3.478 2.86-6.297 6.39-6.297z"/></clipPath><clipPath id="e19wf"><path fill="#fff" d="M43 48.781c3.538 0 6.406 2.847 6.406 6.36 0 3.512-2.868 6.359-6.406 6.359s-6.406-2.847-6.406-6.36c0-3.512 2.868-6.359 6.406-6.359z"/></clipPath><clipPath id="e19wg"><path fill="#fff" d="M92.422 48.781c3.547 0 6.422 2.847 6.422 6.36 0 3.512-2.875 6.359-6.422 6.359-3.547 0-6.422-2.847-6.422-6.36 0-3.512 2.875-6.359 6.422-6.359z"/></clipPath><clipPath id="e19wh"><path fill="#fff" d="M143.625 48.781c3.52 0 6.375 2.847 6.375 6.36 0 3.512-2.854 6.359-6.375 6.359-3.52 0-6.375-2.847-6.375-6.36 0-3.512 2.854-6.359 6.375-6.359z"/></clipPath><clipPath id="e19wi"><path fill="#fff" d="M193.031 48.781c3.521 0 6.375 2.847 6.375 6.36 0 3.512-2.854 6.359-6.375 6.359-3.52 0-6.375-2.847-6.375-6.36 0-3.512 2.854-6.359 6.375-6.359z"/></clipPath><clipPath id="e19wj"><path fill="#fff" d="M244.25 48.781c3.555 0 6.437 2.847 6.437 6.36 0 3.512-2.882 6.359-6.437 6.359s-6.437-2.847-6.437-6.36c0-3.512 2.882-6.359 6.437-6.359z"/></clipPath><clipPath id="e19wk"><path fill="#fff" d="M24.703 97.594c3.547 0 6.422 2.84 6.422 6.343 0 3.504-2.875 6.344-6.422 6.344-3.547 0-6.422-2.84-6.422-6.344 0-3.503 2.875-6.343 6.422-6.343z"/></clipPath><clipPath id="e19wl"><path fill="#fff" d="M74.125 97.594c3.538 0 6.406 2.84 6.406 6.343 0 3.504-2.868 6.344-6.406 6.344s-6.406-2.84-6.406-6.344c0-3.503 2.868-6.343 6.406-6.343z"/></clipPath><clipPath id="e19wm"><path fill="#fff" d="M125.344 97.594c3.538 0 6.406 2.84 6.406 6.343 0 3.504-2.868 6.344-6.406 6.344s-6.407-2.84-6.407-6.344c0-3.503 2.869-6.343 6.407-6.343z"/></clipPath><clipPath id="e19wn"><path fill="#fff" d="M174.703 97.594c3.547 0 6.422 2.84 6.422 6.343 0 3.504-2.875 6.344-6.422 6.344-3.547 0-6.422-2.84-6.422-6.344 0-3.503 2.875-6.343 6.422-6.343z"/></clipPath><clipPath id="e19wo"><path fill="#fff" d="M225.984 97.594c3.547 0 6.422 2.84 6.422 6.343 0 3.504-2.875 6.344-6.422 6.344-3.546 0-6.421-2.84-6.421-6.344 0-3.503 2.875-6.343 6.421-6.343z"/></clipPath><clipPath id="e19wp"><path fill="#fff" d="M6.437 146.438c3.556 0 6.438 2.819 6.438 6.296 0 3.478-2.882 6.297-6.438 6.297-3.555 0-6.437-2.819-6.437-6.297 0-3.477 2.882-6.296 6.437-6.296z"/></clipPath><clipPath id="e19wq"><path fill="#fff" d="M55.828 146.438c3.547 0 6.422 2.819 6.422 6.296 0 3.478-2.875 6.297-6.422 6.297-3.547 0-6.422-2.819-6.422-6.297 0-3.477 2.875-6.296 6.422-6.296z"/></clipPath><clipPath id="e19wr"><path fill="#fff" d="M107.047 146.438c3.512 0 6.36 2.819 6.36 6.296 0 3.478-2.848 6.297-6.36 6.297-3.512 0-6.36-2.819-6.36-6.297 0-3.477 2.848-6.296 6.36-6.296z"/></clipPath><clipPath id="e19ws"><path fill="#fff" d="M156.437 146.438c3.556 0 6.438 2.819 6.438 6.296 0 3.478-2.882 6.297-6.438 6.297-3.555 0-6.437-2.819-6.437-6.297 0-3.477 2.882-6.296 6.437-6.296z"/></clipPath><clipPath id="e19wt"><path fill="#fff" d="M207.688 146.438c3.538 0 6.406 2.819 6.406 6.296 0 3.478-2.868 6.297-6.406 6.297-3.539 0-6.407-2.819-6.407-6.297 0-3.477 2.868-6.296 6.407-6.296z"/></clipPath><clipPath id="e19wu"><path fill="#fff" d="M126.313 220.969c3.538 0 6.406 2.819 6.406 6.297 0 3.477-2.868 6.296-6.406 6.296-3.539 0-6.407-2.819-6.407-6.296 0-3.478 2.868-6.297 6.407-6.297z"/></clipPath><clipPath id="e19wv"><path fill="#fff" d="M175.734 220.969c3.547 0 6.422 2.819 6.422 6.297 0 3.477-2.875 6.296-6.422 6.296-3.546 0-6.421-2.819-6.421-6.296 0-3.478 2.875-6.297 6.421-6.297z"/></clipPath><clipPath id="e19ww"><path fill="#fff" d="M226.953 220.969c3.512 0 6.36 2.819 6.36 6.297 0 3.477-2.848 6.296-6.36 6.296-3.512 0-6.36-2.819-6.36-6.296 0-3.478 2.848-6.297 6.36-6.297z"/></clipPath><clipPath id="e19wx"><path fill="#fff" d="M276.344 220.969c3.52 0 6.375 2.819 6.375 6.297 0 3.477-2.854 6.296-6.375 6.296s-6.375-2.819-6.375-6.296c0-3.478 2.854-6.297 6.375-6.297z"/></clipPath><clipPath id="e19wy"><path fill="#fff" d="M327.562 220.969c3.556 0 6.438 2.819 6.438 6.297 0 3.477-2.882 6.296-6.438 6.296-3.555 0-6.437-2.819-6.437-6.296 0-3.478 2.882-6.297 6.437-6.297z"/></clipPath><clipPath id="e19wz"><path fill="#fff" d="M108.016 269.719c3.546 0 6.422 2.84 6.422 6.344 0 3.503-2.876 6.343-6.422 6.343-3.547 0-6.422-2.84-6.422-6.343 0-3.504 2.875-6.344 6.422-6.344z"/></clipPath><clipPath id="e19wA"><path fill="#fff" d="M157.437 269.719c3.539 0 6.407 2.84 6.407 6.344 0 3.503-2.868 6.343-6.407 6.343-3.538 0-6.406-2.84-6.406-6.343 0-3.504 2.868-6.344 6.406-6.344z"/></clipPath><clipPath id="e19wB"><path fill="#fff" d="M208.656 269.719c3.538 0 6.406 2.84 6.406 6.344 0 3.503-2.868 6.343-6.406 6.343s-6.406-2.84-6.406-6.343c0-3.504 2.868-6.344 6.406-6.344z"/></clipPath><clipPath id="e19wC"><path fill="#fff" d="M258.094 269.719c3.52 0 6.375 2.84 6.375 6.344 0 3.503-2.854 6.343-6.375 6.343s-6.375-2.84-6.375-6.343c0-3.504 2.854-6.344 6.375-6.344z"/></clipPath><clipPath id="e19wD"><path fill="#fff" d="M309.297 269.719c3.547 0 6.422 2.84 6.422 6.344 0 3.503-2.875 6.343-6.422 6.343-3.547 0-6.422-2.84-6.422-6.343 0-3.504 2.875-6.344 6.422-6.344z"/></clipPath><clipPath id="e19wE"><path fill="#fff" d="M89.75 318.5c3.555 0 6.438 2.847 6.438 6.36 0 3.512-2.883 6.359-6.438 6.359-3.555 0-6.438-2.847-6.438-6.36 0-3.512 2.883-6.359 6.438-6.359z"/></clipPath><clipPath id="e19wF"><path fill="#fff" d="M139.156 318.5c3.556 0 6.438 2.847 6.438 6.36 0 3.512-2.882 6.359-6.438 6.359-3.555 0-6.437-2.847-6.437-6.36 0-3.512 2.882-6.359 6.437-6.359z"/></clipPath><clipPath id="e19wG"><path fill="#fff" d="M190.375 318.5c3.52 0 6.375 2.847 6.375 6.36 0 3.512-2.854 6.359-6.375 6.359-3.52 0-6.375-2.847-6.375-6.36 0-3.512 2.854-6.359 6.375-6.359z"/></clipPath><clipPath id="e19wH"><path fill="#fff" d="M239.719 318.5c3.538 0 6.406 2.847 6.406 6.36 0 3.512-2.868 6.359-6.406 6.359s-6.407-2.847-6.407-6.36c0-3.512 2.869-6.359 6.407-6.359z"/></clipPath><clipPath id="e19wI"><path fill="#fff" d="M291 318.5c3.538 0 6.406 2.847 6.406 6.36 0 3.512-2.868 6.359-6.406 6.359s-6.406-2.847-6.406-6.36c0-3.512 2.868-6.359 6.406-6.359z"/></clipPath><clipPath id="e19wJ"><path fill="#fff" d="M71.453 367.406c3.53 0 6.39 2.82 6.39 6.297 0 3.478-2.86 6.297-6.39 6.297s-6.39-2.82-6.39-6.297 2.86-6.297 6.39-6.297z"/></clipPath><clipPath id="e19wK"><path fill="#fff" d="M120.844 367.406c3.538 0 6.406 2.82 6.406 6.297 0 3.478-2.868 6.297-6.406 6.297s-6.406-2.82-6.406-6.297 2.868-6.297 6.406-6.297z"/></clipPath><clipPath id="e19wL"><path fill="#fff" d="M172.094 367.406c3.52 0 6.375 2.82 6.375 6.297 0 3.478-2.854 6.297-6.375 6.297s-6.375-2.82-6.375-6.297 2.854-6.297 6.375-6.297z"/></clipPath><clipPath id="e19wM"><path fill="#fff" d="M221.469 367.406c3.538 0 6.406 2.82 6.406 6.297 0 3.478-2.868 6.297-6.406 6.297s-6.407-2.82-6.407-6.297 2.869-6.297 6.407-6.297z"/></clipPath><clipPath id="e19wN"><path fill="#fff" d="M272.719 367.406c3.555 0 6.437 2.82 6.437 6.297 0 3.478-2.882 6.297-6.437 6.297-3.556 0-6.438-2.82-6.438-6.297s2.882-6.297 6.438-6.297z"/></clipPath></defs><g><g opacity=".7"><g opacity=".7"><path fill="none" stroke="#476b93" stroke-miterlimit="20" stroke-width="2" d="M61.281 0c3.556 0 6.438 2.82 6.438 6.297 0 3.478-2.882 6.297-6.438 6.297-3.555 0-6.437-2.82-6.437-6.297C54.844 2.819 57.726 0 61.28 0z" clip-path="url(&quot;#e19wa&quot;)"/></g><g opacity=".7"><path fill="none" stroke="#476b93" stroke-miterlimit="20" stroke-width="2" d="M110.688 0c3.555 0 6.437 2.82 6.437 6.297 0 3.478-2.882 6.297-6.437 6.297-3.556 0-6.438-2.82-6.438-6.297 0-3.478 2.882-6.297 6.438-6.297z" clip-path="url(&quot;#e19wb&quot;)"/></g><g opacity=".7"><path fill="none" stroke="#476b93" stroke-miterlimit="20" stroke-width="2" d="M161.906 0c3.521 0 6.375 2.82 6.375 6.297 0 3.478-2.854 6.297-6.375 6.297-3.52 0-6.375-2.82-6.375-6.297 0-3.478 2.854-6.297 6.375-6.297z" clip-path="url(&quot;#e19wc&quot;)"/></g><g opacity=".7"><path fill="none" stroke="#476b93" stroke-miterlimit="20" stroke-width="2" d="M211.36 0c3.512 0 6.359 2.82 6.359 6.297 0 3.478-2.847 6.297-6.36 6.297-3.512 0-6.359-2.82-6.359-6.297C205 2.819 207.847 0 211.36 0z" clip-path="url(&quot;#e19wd&quot;)"/></g><g opacity=".7"><path fill="none" stroke="#476b93" stroke-miterlimit="20" stroke-width="2" d="M262.547 0c3.53 0 6.39 2.82 6.39 6.297 0 3.478-2.86 6.297-6.39 6.297s-6.39-2.82-6.39-6.297c0-3.478 2.86-6.297 6.39-6.297z" clip-path="url(&quot;#e19we&quot;)"/></g><g opacity=".7"><path fill="none" stroke="#476b93" stroke-miterlimit="20" stroke-width="2" d="M43 48.781c3.538 0 6.406 2.847 6.406 6.36 0 3.512-2.868 6.359-6.406 6.359s-6.406-2.847-6.406-6.36c0-3.512 2.868-6.359 6.406-6.359z" clip-path="url(&quot;#e19wf&quot;)"/></g><g opacity=".7"><path fill="none" stroke="#476b93" stroke-miterlimit="20" stroke-width="2" d="M92.422 48.781c3.547 0 6.422 2.847 6.422 6.36 0 3.512-2.875 6.359-6.422 6.359-3.547 0-6.422-2.847-6.422-6.36 0-3.512 2.875-6.359 6.422-6.359z" clip-path="url(&quot;#e19wg&quot;)"/></g><g opacity=".7"><path fill="none" stroke="#fff" stroke-miterlimit="20" stroke-width="2" d="M143.625 48.781c3.52 0 6.375 2.847 6.375 6.36 0 3.512-2.854 6.359-6.375 6.359-3.52 0-6.375-2.847-6.375-6.36 0-3.512 2.854-6.359 6.375-6.359z" clip-path="url(&quot;#e19wh&quot;)"/></g><g opacity=".7"><path fill="none" stroke="#476b93" stroke-miterlimit="20" stroke-width="2" d="M193.031 48.781c3.521 0 6.375 2.847 6.375 6.36 0 3.512-2.854 6.359-6.375 6.359-3.52 0-6.375-2.847-6.375-6.36 0-3.512 2.854-6.359 6.375-6.359z" clip-path="url(&quot;#e19wi&quot;)"/></g><g opacity=".7"><path fill="none" stroke="#476b93" stroke-miterlimit="20" stroke-width="2" d="M244.25 48.781c3.555 0 6.437 2.847 6.437 6.36 0 3.512-2.882 6.359-6.437 6.359s-6.437-2.847-6.437-6.36c0-3.512 2.882-6.359 6.437-6.359z" clip-path="url(&quot;#e19wj&quot;)"/></g><g opacity=".7"><path fill="none" stroke="#476b93" stroke-miterlimit="20" stroke-width="2" d="M24.703 97.594c3.547 0 6.422 2.84 6.422 6.343 0 3.504-2.875 6.344-6.422 6.344-3.547 0-6.422-2.84-6.422-6.344 0-3.503 2.875-6.343 6.422-6.343z" clip-path="url(&quot;#e19wk&quot;)"/></g><g opacity=".7"><path fill="none" stroke="#476b93" stroke-miterlimit="20" stroke-width="2" d="M74.125 97.594c3.538 0 6.406 2.84 6.406 6.343 0 3.504-2.868 6.344-6.406 6.344s-6.406-2.84-6.406-6.344c0-3.503 2.868-6.343 6.406-6.343z" clip-path="url(&quot;#e19wl&quot;)"/></g><g opacity=".7"><path fill="none" stroke="#476b93" stroke-miterlimit="20" stroke-width="2" d="M125.344 97.594c3.538 0 6.406 2.84 6.406 6.343 0 3.504-2.868 6.344-6.406 6.344s-6.407-2.84-6.407-6.344c0-3.503 2.869-6.343 6.407-6.343z" clip-path="url(&quot;#e19wm&quot;)"/></g><g opacity=".7"><path fill="none" stroke="#476b93" stroke-miterlimit="20" stroke-width="2" d="M174.703 97.594c3.547 0 6.422 2.84 6.422 6.343 0 3.504-2.875 6.344-6.422 6.344-3.547 0-6.422-2.84-6.422-6.344 0-3.503 2.875-6.343 6.422-6.343z" clip-path="url(&quot;#e19wn&quot;)"/></g><g opacity=".7"><path fill="none" stroke="#476b93" stroke-miterlimit="20" stroke-width="2" d="M225.984 97.594c3.547 0 6.422 2.84 6.422 6.343 0 3.504-2.875 6.344-6.422 6.344-3.546 0-6.421-2.84-6.421-6.344 0-3.503 2.875-6.343 6.421-6.343z" clip-path="url(&quot;#e19wo&quot;)"/></g><g opacity=".7"><path fill="none" stroke="#476b93" stroke-miterlimit="20" stroke-width="2" d="M6.437 146.438c3.556 0 6.438 2.819 6.438 6.296 0 3.478-2.882 6.297-6.438 6.297-3.555 0-6.437-2.819-6.437-6.297 0-3.477 2.882-6.296 6.437-6.296z" clip-path="url(&quot;#e19wp&quot;)"/></g><g opacity=".7"><path fill="none" stroke="#476b93" stroke-miterlimit="20" stroke-width="2" d="M55.828 146.438c3.547 0 6.422 2.819 6.422 6.296 0 3.478-2.875 6.297-6.422 6.297-3.547 0-6.422-2.819-6.422-6.297 0-3.477 2.875-6.296 6.422-6.296z" clip-path="url(&quot;#e19wq&quot;)"/></g><g opacity=".7"><path fill="none" stroke="#476b93" stroke-miterlimit="20" stroke-width="2" d="M107.047 146.438c3.512 0 6.36 2.819 6.36 6.296 0 3.478-2.848 6.297-6.36 6.297-3.512 0-6.36-2.819-6.36-6.297 0-3.477 2.848-6.296 6.36-6.296z" clip-path="url(&quot;#e19wr&quot;)"/></g><g opacity=".7"><path fill="none" stroke="#476b93" stroke-miterlimit="20" stroke-width="2" d="M156.437 146.438c3.556 0 6.438 2.819 6.438 6.296 0 3.478-2.882 6.297-6.438 6.297-3.555 0-6.437-2.819-6.437-6.297 0-3.477 2.882-6.296 6.437-6.296z" clip-path="url(&quot;#e19ws&quot;)"/></g><g opacity=".7"><path fill="none" stroke="#476b93" stroke-miterlimit="20" stroke-width="2" d="M207.688 146.438c3.538 0 6.406 2.819 6.406 6.296 0 3.478-2.868 6.297-6.406 6.297-3.539 0-6.407-2.819-6.407-6.297 0-3.477 2.868-6.296 6.407-6.296z" clip-path="url(&quot;#e19wt&quot;)"/></g><g opacity=".7"><path fill="none" stroke="#476b93" stroke-miterlimit="20" stroke-width="2" d="M126.313 220.969c3.538 0 6.406 2.819 6.406 6.297 0 3.477-2.868 6.296-6.406 6.296-3.539 0-6.407-2.819-6.407-6.296 0-3.478 2.868-6.297 6.407-6.297z" clip-path="url(&quot;#e19wu&quot;)"/></g><g opacity=".7"><path fill="none" stroke="#476b93" stroke-miterlimit="20" stroke-width="2" d="M175.734 220.969c3.547 0 6.422 2.819 6.422 6.297 0 3.477-2.875 6.296-6.422 6.296-3.546 0-6.421-2.819-6.421-6.296 0-3.478 2.875-6.297 6.421-6.297z" clip-path="url(&quot;#e19wv&quot;)"/></g><g opacity=".7"><path fill="none" stroke="#476b93" stroke-miterlimit="20" stroke-width="2" d="M226.953 220.969c3.512 0 6.36 2.819 6.36 6.297 0 3.477-2.848 6.296-6.36 6.296-3.512 0-6.36-2.819-6.36-6.296 0-3.478 2.848-6.297 6.36-6.297z" clip-path="url(&quot;#e19ww&quot;)"/></g><g opacity=".7"><path fill="none" stroke="#476b93" stroke-miterlimit="20" stroke-width="2" d="M276.344 220.969c3.52 0 6.375 2.819 6.375 6.297 0 3.477-2.854 6.296-6.375 6.296s-6.375-2.819-6.375-6.296c0-3.478 2.854-6.297 6.375-6.297z" clip-path="url(&quot;#e19wx&quot;)"/></g><g opacity=".7"><path fill="none" stroke="#476b93" stroke-miterlimit="20" stroke-width="2" d="M327.562 220.969c3.556 0 6.438 2.819 6.438 6.297 0 3.477-2.882 6.296-6.438 6.296-3.555 0-6.437-2.819-6.437-6.296 0-3.478 2.882-6.297 6.437-6.297z" clip-path="url(&quot;#e19wy&quot;)"/></g><g opacity=".7"><path fill="none" stroke="#476b93" stroke-miterlimit="20" stroke-width="2" d="M108.016 269.719c3.546 0 6.422 2.84 6.422 6.344 0 3.503-2.876 6.343-6.422 6.343-3.547 0-6.422-2.84-6.422-6.343 0-3.504 2.875-6.344 6.422-6.344z" clip-path="url(&quot;#e19wz&quot;)"/></g><g opacity=".7"><path fill="none" stroke="#476b93" stroke-miterlimit="20" stroke-width="2" d="M157.437 269.719c3.539 0 6.407 2.84 6.407 6.344 0 3.503-2.868 6.343-6.407 6.343-3.538 0-6.406-2.84-6.406-6.343 0-3.504 2.868-6.344 6.406-6.344z" clip-path="url(&quot;#e19wA&quot;)"/></g><g opacity=".7"><path fill="none" stroke="#476b93" stroke-miterlimit="20" stroke-width="2" d="M208.656 269.719c3.538 0 6.406 2.84 6.406 6.344 0 3.503-2.868 6.343-6.406 6.343s-6.406-2.84-6.406-6.343c0-3.504 2.868-6.344 6.406-6.344z" clip-path="url(&quot;#e19wB&quot;)"/></g><g opacity=".7"><path fill="none" stroke="#476b93" stroke-miterlimit="20" stroke-width="2" d="M258.094 269.719c3.52 0 6.375 2.84 6.375 6.344 0 3.503-2.854 6.343-6.375 6.343s-6.375-2.84-6.375-6.343c0-3.504 2.854-6.344 6.375-6.344z" clip-path="url(&quot;#e19wC&quot;)"/></g><g opacity=".7"><path fill="none" stroke="#476b93" stroke-miterlimit="20" stroke-width="2" d="M309.297 269.719c3.547 0 6.422 2.84 6.422 6.344 0 3.503-2.875 6.343-6.422 6.343-3.547 0-6.422-2.84-6.422-6.343 0-3.504 2.875-6.344 6.422-6.344z" clip-path="url(&quot;#e19wD&quot;)"/></g><g opacity=".7"><path fill="none" stroke="#476b93" stroke-miterlimit="20" stroke-width="2" d="M89.75 318.5c3.555 0 6.438 2.847 6.438 6.36 0 3.512-2.883 6.359-6.438 6.359-3.555 0-6.438-2.847-6.438-6.36 0-3.512 2.883-6.359 6.438-6.359z" clip-path="url(&quot;#e19wE&quot;)"/></g><g opacity=".7"><path fill="none" stroke="#476b93" stroke-miterlimit="20" stroke-width="2" d="M139.156 318.5c3.556 0 6.438 2.847 6.438 6.36 0 3.512-2.882 6.359-6.438 6.359-3.555 0-6.437-2.847-6.437-6.36 0-3.512 2.882-6.359 6.437-6.359z" clip-path="url(&quot;#e19wF&quot;)"/></g><g opacity=".7"><path fill="none" stroke="#fff" stroke-miterlimit="20" stroke-width="2" d="M190.375 318.5c3.52 0 6.375 2.847 6.375 6.36 0 3.512-2.854 6.359-6.375 6.359-3.52 0-6.375-2.847-6.375-6.36 0-3.512 2.854-6.359 6.375-6.359z" clip-path="url(&quot;#e19wG&quot;)"/></g><g opacity=".7"><path fill="none" stroke="#476b93" stroke-miterlimit="20" stroke-width="2" d="M239.719 318.5c3.538 0 6.406 2.847 6.406 6.36 0 3.512-2.868 6.359-6.406 6.359s-6.407-2.847-6.407-6.36c0-3.512 2.869-6.359 6.407-6.359z" clip-path="url(&quot;#e19wH&quot;)"/></g><g opacity=".7"><path fill="none" stroke="#476b93" stroke-miterlimit="20" stroke-width="2" d="M291 318.5c3.538 0 6.406 2.847 6.406 6.36 0 3.512-2.868 6.359-6.406 6.359s-6.406-2.847-6.406-6.36c0-3.512 2.868-6.359 6.406-6.359z" clip-path="url(&quot;#e19wI&quot;)"/></g><g opacity=".7"><path fill="none" stroke="#476b93" stroke-miterlimit="20" stroke-width="2" d="M71.453 367.406c3.53 0 6.39 2.82 6.39 6.297 0 3.478-2.86 6.297-6.39 6.297s-6.39-2.82-6.39-6.297 2.86-6.297 6.39-6.297z" clip-path="url(&quot;#e19wJ&quot;)"/></g><g opacity=".7"><path fill="none" stroke="#476b93" stroke-miterlimit="20" stroke-width="2" d="M120.844 367.406c3.538 0 6.406 2.82 6.406 6.297 0 3.478-2.868 6.297-6.406 6.297s-6.406-2.82-6.406-6.297 2.868-6.297 6.406-6.297z" clip-path="url(&quot;#e19wK&quot;)"/></g><g opacity=".7"><path fill="none" stroke="#476b93" stroke-miterlimit="20" stroke-width="2" d="M172.094 367.406c3.52 0 6.375 2.82 6.375 6.297 0 3.478-2.854 6.297-6.375 6.297s-6.375-2.82-6.375-6.297 2.854-6.297 6.375-6.297z" clip-path="url(&quot;#e19wL&quot;)"/></g><g opacity=".7"><path fill="none" stroke="#476b93" stroke-miterlimit="20" stroke-width="2" d="M221.469 367.406c3.538 0 6.406 2.82 6.406 6.297 0 3.478-2.868 6.297-6.406 6.297s-6.407-2.82-6.407-6.297 2.869-6.297 6.407-6.297z" clip-path="url(&quot;#e19wM&quot;)"/></g><g opacity=".7"><path fill="none" stroke="#476b93" stroke-miterlimit="20" stroke-width="2" d="M272.719 367.406c3.555 0 6.437 2.82 6.437 6.297 0 3.478-2.882 6.297-6.437 6.297-3.556 0-6.438-2.82-6.438-6.297s2.882-6.297 6.438-6.297z" clip-path="url(&quot;#e19wN&quot;)"/></g></g></g></svg>