<svg xmlns="http://www.w3.org/2000/svg" width="215" height="360" viewBox="0 0 215 360"><defs><clipPath id="5e9ua"><path fill="#fff" d="M207.719 0c3.555 0 6.437 2.82 6.437 6.297 0 3.478-2.882 6.297-6.437 6.297-3.556 0-6.438-2.82-6.438-6.297 0-3.478 2.882-6.297 6.438-6.297z"/></clipPath><clipPath id="5e9ub"><path fill="#fff" d="M158.313 0c3.555 0 6.437 2.82 6.437 6.297 0 3.478-2.882 6.297-6.437 6.297-3.556 0-6.438-2.82-6.438-6.297 0-3.478 2.882-6.297 6.438-6.297z"/></clipPath><clipPath id="5e9uc"><path fill="#fff" d="M107.094 0c3.52 0 6.375 2.82 6.375 6.297 0 3.478-2.854 6.297-6.375 6.297s-6.375-2.82-6.375-6.297c0-3.478 2.854-6.297 6.375-6.297z"/></clipPath><clipPath id="5e9ud"><path fill="#fff" d="M57.64 0C61.154 0 64 2.82 64 6.297c0 3.478-2.847 6.297-6.36 6.297-3.512 0-6.359-2.82-6.359-6.297 0-3.478 2.847-6.297 6.36-6.297z"/></clipPath><clipPath id="5e9ue"><path fill="#fff" d="M6.453 0c3.53 0 6.39 2.82 6.39 6.297 0 3.478-2.86 6.297-6.39 6.297S.063 9.774.063 6.297C.062 2.819 2.922 0 6.452 0z"/></clipPath><clipPath id="5e9uf"><path fill="#fff" d="M207.719 43c3.555 0 6.437 2.82 6.437 6.297 0 3.478-2.882 6.297-6.437 6.297-3.556 0-6.438-2.82-6.438-6.297 0-3.478 2.882-6.297 6.438-6.297z"/></clipPath><clipPath id="5e9ug"><path fill="#fff" d="M158.313 43c3.555 0 6.437 2.82 6.437 6.297 0 3.478-2.882 6.297-6.437 6.297-3.556 0-6.438-2.82-6.438-6.297 0-3.478 2.882-6.297 6.438-6.297z"/></clipPath><clipPath id="5e9uh"><path fill="#fff" d="M107.094 43c3.52 0 6.375 2.82 6.375 6.297 0 3.478-2.854 6.297-6.375 6.297s-6.375-2.82-6.375-6.297c0-3.478 2.854-6.297 6.375-6.297z"/></clipPath><clipPath id="5e9ui"><path fill="#fff" d="M57.64 43c3.513 0 6.36 2.82 6.36 6.297 0 3.478-2.847 6.297-6.36 6.297-3.512 0-6.359-2.82-6.359-6.297 0-3.478 2.847-6.297 6.36-6.297z"/></clipPath><clipPath id="5e9uj"><path fill="#fff" d="M6.453 43c3.53 0 6.39 2.82 6.39 6.297 0 3.478-2.86 6.297-6.39 6.297s-6.39-2.82-6.39-6.297c0-3.478 2.86-6.297 6.39-6.297z"/></clipPath><clipPath id="5e9uk"><path fill="#fff" d="M207.719 86c3.555 0 6.437 2.82 6.437 6.297 0 3.478-2.882 6.297-6.437 6.297-3.556 0-6.438-2.82-6.438-6.297 0-3.478 2.882-6.297 6.438-6.297z"/></clipPath><clipPath id="5e9ul"><path fill="#fff" d="M158.313 86c3.555 0 6.437 2.82 6.437 6.297 0 3.478-2.882 6.297-6.437 6.297-3.556 0-6.438-2.82-6.438-6.297 0-3.478 2.882-6.297 6.438-6.297z"/></clipPath><clipPath id="5e9um"><path fill="#fff" d="M107.094 86c3.52 0 6.375 2.82 6.375 6.297 0 3.478-2.854 6.297-6.375 6.297s-6.375-2.82-6.375-6.297c0-3.478 2.854-6.297 6.375-6.297z"/></clipPath><clipPath id="5e9un"><path fill="#fff" d="M57.64 86c3.513 0 6.36 2.82 6.36 6.297 0 3.478-2.847 6.297-6.36 6.297-3.512 0-6.359-2.82-6.359-6.297 0-3.478 2.847-6.297 6.36-6.297z"/></clipPath><clipPath id="5e9uo"><path fill="#fff" d="M6.453 86c3.53 0 6.39 2.82 6.39 6.297 0 3.478-2.86 6.297-6.39 6.297s-6.39-2.82-6.39-6.297c0-3.478 2.86-6.297 6.39-6.297z"/></clipPath><clipPath id="5e9up"><path fill="#fff" d="M207.719 130c3.555 0 6.437 2.82 6.437 6.297 0 3.478-2.882 6.297-6.437 6.297-3.556 0-6.438-2.82-6.438-6.297 0-3.478 2.882-6.297 6.438-6.297z"/></clipPath><clipPath id="5e9uq"><path fill="#fff" d="M158.313 130c3.555 0 6.437 2.82 6.437 6.297 0 3.478-2.882 6.297-6.437 6.297-3.556 0-6.438-2.82-6.438-6.297 0-3.478 2.882-6.297 6.438-6.297z"/></clipPath><clipPath id="5e9ur"><path fill="#fff" d="M107.094 130c3.52 0 6.375 2.82 6.375 6.297 0 3.478-2.854 6.297-6.375 6.297s-6.375-2.82-6.375-6.297c0-3.478 2.854-6.297 6.375-6.297z"/></clipPath><clipPath id="5e9us"><path fill="#fff" d="M57.64 130c3.513 0 6.36 2.82 6.36 6.297 0 3.478-2.847 6.297-6.36 6.297-3.512 0-6.359-2.82-6.359-6.297 0-3.478 2.847-6.297 6.36-6.297z"/></clipPath><clipPath id="5e9ut"><path fill="#fff" d="M6.453 130c3.53 0 6.39 2.82 6.39 6.297 0 3.478-2.86 6.297-6.39 6.297s-6.39-2.82-6.39-6.297c0-3.478 2.86-6.297 6.39-6.297z"/></clipPath><clipPath id="5e9uu"><path fill="#fff" d="M207.719 173c3.555 0 6.437 2.82 6.437 6.297 0 3.478-2.882 6.297-6.437 6.297-3.556 0-6.438-2.82-6.438-6.297 0-3.478 2.882-6.297 6.438-6.297z"/></clipPath><clipPath id="5e9uv"><path fill="#fff" d="M158.313 173c3.555 0 6.437 2.82 6.437 6.297 0 3.478-2.882 6.297-6.437 6.297-3.556 0-6.438-2.82-6.438-6.297 0-3.478 2.882-6.297 6.438-6.297z"/></clipPath><clipPath id="5e9uw"><path fill="#fff" d="M107.094 173c3.52 0 6.375 2.82 6.375 6.297 0 3.478-2.854 6.297-6.375 6.297s-6.375-2.82-6.375-6.297c0-3.478 2.854-6.297 6.375-6.297z"/></clipPath><clipPath id="5e9ux"><path fill="#fff" d="M57.64 173c3.513 0 6.36 2.82 6.36 6.297 0 3.478-2.847 6.297-6.36 6.297-3.512 0-6.359-2.82-6.359-6.297 0-3.478 2.847-6.297 6.36-6.297z"/></clipPath><clipPath id="5e9uy"><path fill="#fff" d="M6.453 173c3.53 0 6.39 2.82 6.39 6.297 0 3.478-2.86 6.297-6.39 6.297s-6.39-2.82-6.39-6.297c0-3.478 2.86-6.297 6.39-6.297z"/></clipPath><clipPath id="5e9uz"><path fill="#fff" d="M207.719 216c3.555 0 6.437 2.82 6.437 6.297 0 3.478-2.882 6.297-6.437 6.297-3.556 0-6.438-2.82-6.438-6.297 0-3.478 2.882-6.297 6.438-6.297z"/></clipPath><clipPath id="5e9uA"><path fill="#fff" d="M158.313 216c3.555 0 6.437 2.82 6.437 6.297 0 3.478-2.882 6.297-6.437 6.297-3.556 0-6.438-2.82-6.438-6.297 0-3.478 2.882-6.297 6.438-6.297z"/></clipPath><clipPath id="5e9uB"><path fill="#fff" d="M107.094 216c3.52 0 6.375 2.82 6.375 6.297 0 3.478-2.854 6.297-6.375 6.297s-6.375-2.82-6.375-6.297c0-3.478 2.854-6.297 6.375-6.297z"/></clipPath><clipPath id="5e9uC"><path fill="#fff" d="M57.64 216c3.513 0 6.36 2.82 6.36 6.297 0 3.478-2.847 6.297-6.36 6.297-3.512 0-6.359-2.82-6.359-6.297 0-3.478 2.847-6.297 6.36-6.297z"/></clipPath><clipPath id="5e9uD"><path fill="#fff" d="M6.453 216c3.53 0 6.39 2.82 6.39 6.297 0 3.478-2.86 6.297-6.39 6.297s-6.39-2.82-6.39-6.297c0-3.478 2.86-6.297 6.39-6.297z"/></clipPath><clipPath id="5e9uE"><path fill="#fff" d="M207.719 261c3.555 0 6.437 2.82 6.437 6.297 0 3.478-2.882 6.297-6.437 6.297-3.556 0-6.438-2.82-6.438-6.297 0-3.478 2.882-6.297 6.438-6.297z"/></clipPath><clipPath id="5e9uF"><path fill="#fff" d="M158.313 261c3.555 0 6.437 2.82 6.437 6.297 0 3.478-2.882 6.297-6.437 6.297-3.556 0-6.438-2.82-6.438-6.297 0-3.478 2.882-6.297 6.438-6.297z"/></clipPath><clipPath id="5e9uG"><path fill="#fff" d="M107.094 261c3.52 0 6.375 2.82 6.375 6.297 0 3.478-2.854 6.297-6.375 6.297s-6.375-2.82-6.375-6.297c0-3.478 2.854-6.297 6.375-6.297z"/></clipPath><clipPath id="5e9uH"><path fill="#fff" d="M57.64 261c3.513 0 6.36 2.82 6.36 6.297 0 3.478-2.847 6.297-6.36 6.297-3.512 0-6.359-2.82-6.359-6.297 0-3.478 2.847-6.297 6.36-6.297z"/></clipPath><clipPath id="5e9uI"><path fill="#fff" d="M6.453 261c3.53 0 6.39 2.82 6.39 6.297 0 3.478-2.86 6.297-6.39 6.297s-6.39-2.82-6.39-6.297c0-3.478 2.86-6.297 6.39-6.297z"/></clipPath><clipPath id="5e9uJ"><path fill="#fff" d="M207.719 304c3.555 0 6.437 2.82 6.437 6.297 0 3.478-2.882 6.297-6.437 6.297-3.556 0-6.438-2.82-6.438-6.297 0-3.478 2.882-6.297 6.438-6.297z"/></clipPath><clipPath id="5e9uK"><path fill="#fff" d="M158.313 304c3.555 0 6.437 2.82 6.437 6.297 0 3.478-2.882 6.297-6.437 6.297-3.556 0-6.438-2.82-6.438-6.297 0-3.478 2.882-6.297 6.438-6.297z"/></clipPath><clipPath id="5e9uL"><path fill="#fff" d="M107.094 304c3.52 0 6.375 2.82 6.375 6.297 0 3.478-2.854 6.297-6.375 6.297s-6.375-2.82-6.375-6.297c0-3.478 2.854-6.297 6.375-6.297z"/></clipPath><clipPath id="5e9uM"><path fill="#fff" d="M57.64 304c3.513 0 6.36 2.82 6.36 6.297 0 3.478-2.847 6.297-6.36 6.297-3.512 0-6.359-2.82-6.359-6.297 0-3.478 2.847-6.297 6.36-6.297z"/></clipPath><clipPath id="5e9uN"><path fill="#fff" d="M6.453 304c3.53 0 6.39 2.82 6.39 6.297 0 3.478-2.86 6.297-6.39 6.297s-6.39-2.82-6.39-6.297c0-3.478 2.86-6.297 6.39-6.297z"/></clipPath><clipPath id="5e9uO"><path fill="#fff" d="M207.719 347c3.555 0 6.437 2.82 6.437 6.297 0 3.478-2.882 6.297-6.437 6.297-3.556 0-6.438-2.82-6.438-6.297 0-3.478 2.882-6.297 6.438-6.297z"/></clipPath><clipPath id="5e9uP"><path fill="#fff" d="M158.313 347c3.555 0 6.437 2.82 6.437 6.297 0 3.478-2.882 6.297-6.437 6.297-3.556 0-6.438-2.82-6.438-6.297 0-3.478 2.882-6.297 6.438-6.297z"/></clipPath><clipPath id="5e9uQ"><path fill="#fff" d="M107.094 347c3.52 0 6.375 2.82 6.375 6.297 0 3.478-2.854 6.297-6.375 6.297s-6.375-2.82-6.375-6.297c0-3.478 2.854-6.297 6.375-6.297z"/></clipPath><clipPath id="5e9uR"><path fill="#fff" d="M57.64 347c3.513 0 6.36 2.82 6.36 6.297 0 3.478-2.847 6.297-6.36 6.297-3.512 0-6.359-2.82-6.359-6.297 0-3.478 2.847-6.297 6.36-6.297z"/></clipPath><clipPath id="5e9uS"><path fill="#fff" d="M6.453 347c3.53 0 6.39 2.82 6.39 6.297 0 3.478-2.86 6.297-6.39 6.297s-6.39-2.82-6.39-6.297c0-3.478 2.86-6.297 6.39-6.297z"/></clipPath></defs><g><g opacity=".7"><g opacity=".7"><path fill="none" stroke="#476b93" stroke-miterlimit="20" stroke-width="2" d="M207.719 0c3.555 0 6.437 2.82 6.437 6.297 0 3.478-2.882 6.297-6.437 6.297-3.556 0-6.438-2.82-6.438-6.297 0-3.478 2.882-6.297 6.438-6.297z" clip-path="url(&quot;#5e9ua&quot;)"/></g><g opacity=".7"><path fill="none" stroke="#476b93" stroke-miterlimit="20" stroke-width="2" d="M158.313 0c3.555 0 6.437 2.82 6.437 6.297 0 3.478-2.882 6.297-6.437 6.297-3.556 0-6.438-2.82-6.438-6.297 0-3.478 2.882-6.297 6.438-6.297z" clip-path="url(&quot;#5e9ub&quot;)"/></g><g opacity=".7"><path fill="none" stroke="#476b93" stroke-miterlimit="20" stroke-width="2" d="M107.094 0c3.52 0 6.375 2.82 6.375 6.297 0 3.478-2.854 6.297-6.375 6.297s-6.375-2.82-6.375-6.297c0-3.478 2.854-6.297 6.375-6.297z" clip-path="url(&quot;#5e9uc&quot;)"/></g><g opacity=".7"><path fill="none" stroke="#476b93" stroke-miterlimit="20" stroke-width="2" d="M57.64 0C61.154 0 64 2.82 64 6.297c0 3.478-2.847 6.297-6.36 6.297-3.512 0-6.359-2.82-6.359-6.297 0-3.478 2.847-6.297 6.36-6.297z" clip-path="url(&quot;#5e9ud&quot;)"/></g><g opacity=".7"><path fill="none" stroke="#476b93" stroke-miterlimit="20" stroke-width="2" d="M6.453 0c3.53 0 6.39 2.82 6.39 6.297 0 3.478-2.86 6.297-6.39 6.297S.063 9.774.063 6.297C.062 2.819 2.922 0 6.452 0z" clip-path="url(&quot;#5e9ue&quot;)"/></g><g opacity=".7"><path fill="none" stroke="#476b93" stroke-miterlimit="20" stroke-width="2" d="M207.719 43c3.555 0 6.437 2.82 6.437 6.297 0 3.478-2.882 6.297-6.437 6.297-3.556 0-6.438-2.82-6.438-6.297 0-3.478 2.882-6.297 6.438-6.297z" clip-path="url(&quot;#5e9uf&quot;)"/></g><g opacity=".7"><path fill="none" stroke="#476b93" stroke-miterlimit="20" stroke-width="2" d="M158.313 43c3.555 0 6.437 2.82 6.437 6.297 0 3.478-2.882 6.297-6.437 6.297-3.556 0-6.438-2.82-6.438-6.297 0-3.478 2.882-6.297 6.438-6.297z" clip-path="url(&quot;#5e9ug&quot;)"/></g><g opacity=".7"><path fill="none" stroke="#476b93" stroke-miterlimit="20" stroke-width="2" d="M107.094 43c3.52 0 6.375 2.82 6.375 6.297 0 3.478-2.854 6.297-6.375 6.297s-6.375-2.82-6.375-6.297c0-3.478 2.854-6.297 6.375-6.297z" clip-path="url(&quot;#5e9uh&quot;)"/></g><g opacity=".7"><path fill="none" stroke="#476b93" stroke-miterlimit="20" stroke-width="2" d="M57.64 43c3.513 0 6.36 2.82 6.36 6.297 0 3.478-2.847 6.297-6.36 6.297-3.512 0-6.359-2.82-6.359-6.297 0-3.478 2.847-6.297 6.36-6.297z" clip-path="url(&quot;#5e9ui&quot;)"/></g><g opacity=".7"><path fill="none" stroke="#476b93" stroke-miterlimit="20" stroke-width="2" d="M6.453 43c3.53 0 6.39 2.82 6.39 6.297 0 3.478-2.86 6.297-6.39 6.297s-6.39-2.82-6.39-6.297c0-3.478 2.86-6.297 6.39-6.297z" clip-path="url(&quot;#5e9uj&quot;)"/></g><g opacity=".7"><path fill="none" stroke="#476b93" stroke-miterlimit="20" stroke-width="2" d="M207.719 86c3.555 0 6.437 2.82 6.437 6.297 0 3.478-2.882 6.297-6.437 6.297-3.556 0-6.438-2.82-6.438-6.297 0-3.478 2.882-6.297 6.438-6.297z" clip-path="url(&quot;#5e9uk&quot;)"/></g><g opacity=".7"><path fill="none" stroke="#476b93" stroke-miterlimit="20" stroke-width="2" d="M158.313 86c3.555 0 6.437 2.82 6.437 6.297 0 3.478-2.882 6.297-6.437 6.297-3.556 0-6.438-2.82-6.438-6.297 0-3.478 2.882-6.297 6.438-6.297z" clip-path="url(&quot;#5e9ul&quot;)"/></g><g opacity=".7"><path fill="none" stroke="#476b93" stroke-miterlimit="20" stroke-width="2" d="M107.094 86c3.52 0 6.375 2.82 6.375 6.297 0 3.478-2.854 6.297-6.375 6.297s-6.375-2.82-6.375-6.297c0-3.478 2.854-6.297 6.375-6.297z" clip-path="url(&quot;#5e9um&quot;)"/></g><g opacity=".7"><path fill="none" stroke="#476b93" stroke-miterlimit="20" stroke-width="2" d="M57.64 86c3.513 0 6.36 2.82 6.36 6.297 0 3.478-2.847 6.297-6.36 6.297-3.512 0-6.359-2.82-6.359-6.297 0-3.478 2.847-6.297 6.36-6.297z" clip-path="url(&quot;#5e9un&quot;)"/></g><g opacity=".7"><path fill="none" stroke="#476b93" stroke-miterlimit="20" stroke-width="2" d="M6.453 86c3.53 0 6.39 2.82 6.39 6.297 0 3.478-2.86 6.297-6.39 6.297s-6.39-2.82-6.39-6.297c0-3.478 2.86-6.297 6.39-6.297z" clip-path="url(&quot;#5e9uo&quot;)"/></g><g opacity=".7"><path fill="none" stroke="#476b93" stroke-miterlimit="20" stroke-width="2" d="M207.719 130c3.555 0 6.437 2.82 6.437 6.297 0 3.478-2.882 6.297-6.437 6.297-3.556 0-6.438-2.82-6.438-6.297 0-3.478 2.882-6.297 6.438-6.297z" clip-path="url(&quot;#5e9up&quot;)"/></g><g opacity=".7"><path fill="none" stroke="#476b93" stroke-miterlimit="20" stroke-width="2" d="M158.313 130c3.555 0 6.437 2.82 6.437 6.297 0 3.478-2.882 6.297-6.437 6.297-3.556 0-6.438-2.82-6.438-6.297 0-3.478 2.882-6.297 6.438-6.297z" clip-path="url(&quot;#5e9uq&quot;)"/></g><g opacity=".7"><path fill="none" stroke="#476b93" stroke-miterlimit="20" stroke-width="2" d="M107.094 130c3.52 0 6.375 2.82 6.375 6.297 0 3.478-2.854 6.297-6.375 6.297s-6.375-2.82-6.375-6.297c0-3.478 2.854-6.297 6.375-6.297z" clip-path="url(&quot;#5e9ur&quot;)"/></g><g opacity=".7"><path fill="none" stroke="#476b93" stroke-miterlimit="20" stroke-width="2" d="M57.64 130c3.513 0 6.36 2.82 6.36 6.297 0 3.478-2.847 6.297-6.36 6.297-3.512 0-6.359-2.82-6.359-6.297 0-3.478 2.847-6.297 6.36-6.297z" clip-path="url(&quot;#5e9us&quot;)"/></g><g opacity=".7"><path fill="none" stroke="#476b93" stroke-miterlimit="20" stroke-width="2" d="M6.453 130c3.53 0 6.39 2.82 6.39 6.297 0 3.478-2.86 6.297-6.39 6.297s-6.39-2.82-6.39-6.297c0-3.478 2.86-6.297 6.39-6.297z" clip-path="url(&quot;#5e9ut&quot;)"/></g><g opacity=".7"><path fill="none" stroke="#476b93" stroke-miterlimit="20" stroke-width="2" d="M207.719 173c3.555 0 6.437 2.82 6.437 6.297 0 3.478-2.882 6.297-6.437 6.297-3.556 0-6.438-2.82-6.438-6.297 0-3.478 2.882-6.297 6.438-6.297z" clip-path="url(&quot;#5e9uu&quot;)"/></g><g opacity=".7"><path fill="none" stroke="#476b93" stroke-miterlimit="20" stroke-width="2" d="M158.313 173c3.555 0 6.437 2.82 6.437 6.297 0 3.478-2.882 6.297-6.437 6.297-3.556 0-6.438-2.82-6.438-6.297 0-3.478 2.882-6.297 6.438-6.297z" clip-path="url(&quot;#5e9uv&quot;)"/></g><g opacity=".7"><path fill="none" stroke="#476b93" stroke-miterlimit="20" stroke-width="2" d="M107.094 173c3.52 0 6.375 2.82 6.375 6.297 0 3.478-2.854 6.297-6.375 6.297s-6.375-2.82-6.375-6.297c0-3.478 2.854-6.297 6.375-6.297z" clip-path="url(&quot;#5e9uw&quot;)"/></g><g opacity=".7"><path fill="none" stroke="#476b93" stroke-miterlimit="20" stroke-width="2" d="M57.64 173c3.513 0 6.36 2.82 6.36 6.297 0 3.478-2.847 6.297-6.36 6.297-3.512 0-6.359-2.82-6.359-6.297 0-3.478 2.847-6.297 6.36-6.297z" clip-path="url(&quot;#5e9ux&quot;)"/></g><g opacity=".7"><path fill="none" stroke="#476b93" stroke-miterlimit="20" stroke-width="2" d="M6.453 173c3.53 0 6.39 2.82 6.39 6.297 0 3.478-2.86 6.297-6.39 6.297s-6.39-2.82-6.39-6.297c0-3.478 2.86-6.297 6.39-6.297z" clip-path="url(&quot;#5e9uy&quot;)"/></g><g opacity=".7"><path fill="none" stroke="#476b93" stroke-miterlimit="20" stroke-width="2" d="M207.719 216c3.555 0 6.437 2.82 6.437 6.297 0 3.478-2.882 6.297-6.437 6.297-3.556 0-6.438-2.82-6.438-6.297 0-3.478 2.882-6.297 6.438-6.297z" clip-path="url(&quot;#5e9uz&quot;)"/></g><g opacity=".7"><path fill="none" stroke="#476b93" stroke-miterlimit="20" stroke-width="2" d="M158.313 216c3.555 0 6.437 2.82 6.437 6.297 0 3.478-2.882 6.297-6.437 6.297-3.556 0-6.438-2.82-6.438-6.297 0-3.478 2.882-6.297 6.438-6.297z" clip-path="url(&quot;#5e9uA&quot;)"/></g><g opacity=".7"><path fill="none" stroke="#476b93" stroke-miterlimit="20" stroke-width="2" d="M107.094 216c3.52 0 6.375 2.82 6.375 6.297 0 3.478-2.854 6.297-6.375 6.297s-6.375-2.82-6.375-6.297c0-3.478 2.854-6.297 6.375-6.297z" clip-path="url(&quot;#5e9uB&quot;)"/></g><g opacity=".7"><path fill="none" stroke="#476b93" stroke-miterlimit="20" stroke-width="2" d="M57.64 216c3.513 0 6.36 2.82 6.36 6.297 0 3.478-2.847 6.297-6.36 6.297-3.512 0-6.359-2.82-6.359-6.297 0-3.478 2.847-6.297 6.36-6.297z" clip-path="url(&quot;#5e9uC&quot;)"/></g><g opacity=".7"><path fill="none" stroke="#476b93" stroke-miterlimit="20" stroke-width="2" d="M6.453 216c3.53 0 6.39 2.82 6.39 6.297 0 3.478-2.86 6.297-6.39 6.297s-6.39-2.82-6.39-6.297c0-3.478 2.86-6.297 6.39-6.297z" clip-path="url(&quot;#5e9uD&quot;)"/></g><g opacity=".7"><path fill="none" stroke="#476b93" stroke-miterlimit="20" stroke-width="2" d="M207.719 261c3.555 0 6.437 2.82 6.437 6.297 0 3.478-2.882 6.297-6.437 6.297-3.556 0-6.438-2.82-6.438-6.297 0-3.478 2.882-6.297 6.438-6.297z" clip-path="url(&quot;#5e9uE&quot;)"/></g><g opacity=".7"><path fill="none" stroke="#476b93" stroke-miterlimit="20" stroke-width="2" d="M158.313 261c3.555 0 6.437 2.82 6.437 6.297 0 3.478-2.882 6.297-6.437 6.297-3.556 0-6.438-2.82-6.438-6.297 0-3.478 2.882-6.297 6.438-6.297z" clip-path="url(&quot;#5e9uF&quot;)"/></g><g opacity=".7"><path fill="none" stroke="#476b93" stroke-miterlimit="20" stroke-width="2" d="M107.094 261c3.52 0 6.375 2.82 6.375 6.297 0 3.478-2.854 6.297-6.375 6.297s-6.375-2.82-6.375-6.297c0-3.478 2.854-6.297 6.375-6.297z" clip-path="url(&quot;#5e9uG&quot;)"/></g><g opacity=".7"><path fill="none" stroke="#476b93" stroke-miterlimit="20" stroke-width="2" d="M57.64 261c3.513 0 6.36 2.82 6.36 6.297 0 3.478-2.847 6.297-6.36 6.297-3.512 0-6.359-2.82-6.359-6.297 0-3.478 2.847-6.297 6.36-6.297z" clip-path="url(&quot;#5e9uH&quot;)"/></g><g opacity=".7"><path fill="none" stroke="#476b93" stroke-miterlimit="20" stroke-width="2" d="M6.453 261c3.53 0 6.39 2.82 6.39 6.297 0 3.478-2.86 6.297-6.39 6.297s-6.39-2.82-6.39-6.297c0-3.478 2.86-6.297 6.39-6.297z" clip-path="url(&quot;#5e9uI&quot;)"/></g><g opacity=".7"><path fill="none" stroke="#476b93" stroke-miterlimit="20" stroke-width="2" d="M207.719 304c3.555 0 6.437 2.82 6.437 6.297 0 3.478-2.882 6.297-6.437 6.297-3.556 0-6.438-2.82-6.438-6.297 0-3.478 2.882-6.297 6.438-6.297z" clip-path="url(&quot;#5e9uJ&quot;)"/></g><g opacity=".7"><path fill="none" stroke="#476b93" stroke-miterlimit="20" stroke-width="2" d="M158.313 304c3.555 0 6.437 2.82 6.437 6.297 0 3.478-2.882 6.297-6.437 6.297-3.556 0-6.438-2.82-6.438-6.297 0-3.478 2.882-6.297 6.438-6.297z" clip-path="url(&quot;#5e9uK&quot;)"/></g><g opacity=".7"><path fill="none" stroke="#476b93" stroke-miterlimit="20" stroke-width="2" d="M107.094 304c3.52 0 6.375 2.82 6.375 6.297 0 3.478-2.854 6.297-6.375 6.297s-6.375-2.82-6.375-6.297c0-3.478 2.854-6.297 6.375-6.297z" clip-path="url(&quot;#5e9uL&quot;)"/></g><g opacity=".7"><path fill="none" stroke="#476b93" stroke-miterlimit="20" stroke-width="2" d="M57.64 304c3.513 0 6.36 2.82 6.36 6.297 0 3.478-2.847 6.297-6.36 6.297-3.512 0-6.359-2.82-6.359-6.297 0-3.478 2.847-6.297 6.36-6.297z" clip-path="url(&quot;#5e9uM&quot;)"/></g><g opacity=".7"><path fill="none" stroke="#476b93" stroke-miterlimit="20" stroke-width="2" d="M6.453 304c3.53 0 6.39 2.82 6.39 6.297 0 3.478-2.86 6.297-6.39 6.297s-6.39-2.82-6.39-6.297c0-3.478 2.86-6.297 6.39-6.297z" clip-path="url(&quot;#5e9uN&quot;)"/></g><g opacity=".7"><path fill="none" stroke="#476b93" stroke-miterlimit="20" stroke-width="2" d="M207.719 347c3.555 0 6.437 2.82 6.437 6.297 0 3.478-2.882 6.297-6.437 6.297-3.556 0-6.438-2.82-6.438-6.297 0-3.478 2.882-6.297 6.438-6.297z" clip-path="url(&quot;#5e9uO&quot;)"/></g><g opacity=".7"><path fill="none" stroke="#476b93" stroke-miterlimit="20" stroke-width="2" d="M158.313 347c3.555 0 6.437 2.82 6.437 6.297 0 3.478-2.882 6.297-6.437 6.297-3.556 0-6.438-2.82-6.438-6.297 0-3.478 2.882-6.297 6.438-6.297z" clip-path="url(&quot;#5e9uP&quot;)"/></g><g opacity=".7"><path fill="none" stroke="#476b93" stroke-miterlimit="20" stroke-width="2" d="M107.094 347c3.52 0 6.375 2.82 6.375 6.297 0 3.478-2.854 6.297-6.375 6.297s-6.375-2.82-6.375-6.297c0-3.478 2.854-6.297 6.375-6.297z" clip-path="url(&quot;#5e9uQ&quot;)"/></g><g opacity=".7"><path fill="none" stroke="#476b93" stroke-miterlimit="20" stroke-width="2" d="M57.64 347c3.513 0 6.36 2.82 6.36 6.297 0 3.478-2.847 6.297-6.36 6.297-3.512 0-6.359-2.82-6.359-6.297 0-3.478 2.847-6.297 6.36-6.297z" clip-path="url(&quot;#5e9uR&quot;)"/></g><g opacity=".7"><path fill="none" stroke="#476b93" stroke-miterlimit="20" stroke-width="2" d="M6.453 347c3.53 0 6.39 2.82 6.39 6.297 0 3.478-2.86 6.297-6.39 6.297s-6.39-2.82-6.39-6.297c0-3.478 2.86-6.297 6.39-6.297z" clip-path="url(&quot;#5e9uS&quot;)"/></g></g></g></svg>