<svg width="0" height="0" class="hidden">
  <symbol xmlns="http://www.w3.org/2000/svg" viewBox="0 0 17 39" id="arrow-to-bottom">
    <path fill="#fff" d="M8.5 0c1.294 0 2.344 1.063 2.344 2.375S9.794 4.75 8.5 4.75c-1.294 0-2.344-1.063-2.344-2.375S7.206 0 8.5 0z" opacity=".3"></path>
    <path fill="#fff" d="M8.5 8.187c1.674 0 3.031 1.379 3.031 3.079 0 1.7-1.357 3.078-3.031 3.078-1.674 0-3.031-1.378-3.031-3.078S6.826 8.187 8.5 8.187z" opacity=".5"></path>
    <path fill="#fff" d="M8.828 17.75c2.235 0 4.047 1.833 4.047 4.094 0 2.26-1.812 4.093-4.047 4.093-2.235 0-4.047-1.832-4.047-4.093s1.812-4.094 4.047-4.094z" opacity=".7"></path>
    <path fill="#fff" d="M7.536 38.587l-7.15-7.241a1.378 1.378 0 010-1.931h16.207a1.378 1.378 0 010 1.93l-7.15 7.242a1.336 1.336 0 01-1.907 0z"></path>
  </symbol>
  <symbol xmlns="http://www.w3.org/2000/svg" viewBox="0 0 1168 825" id="bg-stars">
    <defs>
      <filter id="a" width="58" height="58" x="-14" y="656" filterUnits="userSpaceOnUse">
        <feOffset in="SourceGraphic" result="FeOffset1663Out"></feOffset>
        <feGaussianBlur in="FeOffset1663Out" result="FeGaussianBlur1664Out" stdDeviation="6.16 6.16"></feGaussianBlur>
      </filter>
      <filter id="c" width="58" height="58" x="264" y="781" filterUnits="userSpaceOnUse">
        <feOffset in="SourceGraphic" result="FeOffset1685Out"></feOffset>
        <feGaussianBlur in="FeOffset1685Out" result="FeGaussianBlur1686Out" stdDeviation="6.16 6.16"></feGaussianBlur>
      </filter>
      <filter id="e" width="58" height="58" x="264" y="-14" filterUnits="userSpaceOnUse">
        <feOffset in="SourceGraphic" result="FeOffset1707Out"></feOffset>
        <feGaussianBlur in="FeOffset1707Out" result="FeGaussianBlur1708Out" stdDeviation="6.16 6.16"></feGaussianBlur>
      </filter>
      <filter id="g" width="58" height="58" x="1124" y="16" filterUnits="userSpaceOnUse">
        <feOffset in="SourceGraphic" result="FeOffset1729Out"></feOffset>
        <feGaussianBlur in="FeOffset1729Out" result="FeGaussianBlur1730Out" stdDeviation="6.16 6.16"></feGaussianBlur>
      </filter>
      <filter id="i" width="58" height="58" x="847" y="727" filterUnits="userSpaceOnUse">
        <feOffset in="SourceGraphic" result="FeOffset1751Out"></feOffset>
        <feGaussianBlur in="FeOffset1751Out" result="FeGaussianBlur1752Out" stdDeviation="6.16 6.16"></feGaussianBlur>
      </filter>
      <mask id="b" width="2.2" height="2.2" x="-1.1" y="-1.1">
        <path fill="#fff" d="M11.4 681.4h7.2v7.2h-7.2z"></path>
        <path d="M15 682a3 3 0 110 6 3 3 0 010-6z"></path>
      </mask>
      <mask id="d" width="2.2" height="2.2" x="-1.1" y="-1.1">
        <path fill="#fff" d="M289.4 806.4h7.2v7.2h-7.2z"></path>
        <path d="M293 807a3 3 0 110 6 3 3 0 010-6z"></path>
      </mask>
      <mask id="f" width="2.2" height="2.2" x="-1.1" y="-1.1">
        <path fill="#fff" d="M289.4 11.4h7.2v7.2h-7.2z"></path>
        <path d="M293 12a3 3 0 110 6 3 3 0 010-6z"></path>
      </mask>
      <mask id="h" width="2.2" height="2.2" x="-1.1" y="-1.1">
        <path fill="#fff" d="M1149.4 41.4h7.2v7.2h-7.2z"></path>
        <path d="M1153 42a3 3 0 110 6 3 3 0 010-6z"></path>
      </mask>
      <mask id="j" width="2.2" height="2.2" x="-1.1" y="-1.1">
        <path fill="#fff" d="M872.4 752.4h7.2v7.2h-7.2z"></path>
        <path d="M876 753a3 3 0 110 6 3 3 0 010-6z"></path>
      </mask>
    </defs>
    <g filter="url(#a)">
      <path fill="none" stroke="#5f8cc7" stroke-width="1.2" d="M15 682a3 3 0 110 6 3 3 0 010-6z" mask="url(&amp;quot;#b&amp;quot;)"></path>
      <path fill="#5f8cc7" d="M15 682a3 3 0 110 6 3 3 0 010-6z"></path>
    </g>
    <g filter="url(#a)">
      <path fill="none" stroke="#5f8cc7" stroke-width="1.2" d="M15 682a3 3 0 110 6 3 3 0 010-6z" mask="url(&amp;quot;#b&amp;quot;)"></path>
      <path fill="#5f8cc7" d="M15 682a3 3 0 110 6 3 3 0 010-6z"></path>
    </g>
    <path fill="#5f8cc7" d="M15 682a3 3 0 110 6 3 3 0 010-6z"></path>
    <g filter="url(#c)">
      <path fill="none" stroke="#5f8cc7" stroke-width="1.2" d="M293 807a3 3 0 110 6 3 3 0 010-6z" mask="url(&amp;quot;#d&amp;quot;)"></path>
      <path fill="#5f8cc7" d="M293 807a3 3 0 110 6 3 3 0 010-6z"></path>
    </g>
    <g filter="url(#c)">
      <path fill="none" stroke="#5f8cc7" stroke-width="1.2" d="M293 807a3 3 0 110 6 3 3 0 010-6z" mask="url(&amp;quot;#d&amp;quot;)"></path>
      <path fill="#5f8cc7" d="M293 807a3 3 0 110 6 3 3 0 010-6z"></path>
    </g>
    <path fill="#5f8cc7" d="M293 807a3 3 0 110 6 3 3 0 010-6z"></path>
    <g filter="url(#e)">
      <path fill="none" stroke="#5f8cc7" stroke-width="1.2" d="M293 12a3 3 0 110 6 3 3 0 010-6z" mask="url(&amp;quot;#f&amp;quot;)"></path>
      <path fill="#5f8cc7" d="M293 12a3 3 0 110 6 3 3 0 010-6z"></path>
    </g>
    <g filter="url(#e)">
      <path fill="none" stroke="#5f8cc7" stroke-width="1.2" d="M293 12a3 3 0 110 6 3 3 0 010-6z" mask="url(&amp;quot;#f&amp;quot;)"></path>
      <path fill="#5f8cc7" d="M293 12a3 3 0 110 6 3 3 0 010-6z"></path>
    </g>
    <path fill="#5f8cc7" d="M293 12a3 3 0 110 6 3 3 0 010-6z"></path>
    <g filter="url(#g)">
      <path fill="none" stroke="#5f8cc7" stroke-width="1.2" d="M1153 42a3 3 0 110 6 3 3 0 010-6z" mask="url(&amp;quot;#h&amp;quot;)"></path>
      <path fill="#5f8cc7" d="M1153 42a3 3 0 110 6 3 3 0 010-6z"></path>
    </g>
    <g filter="url(#g)">
      <path fill="none" stroke="#5f8cc7" stroke-width="1.2" d="M1153 42a3 3 0 110 6 3 3 0 010-6z" mask="url(&amp;quot;#h&amp;quot;)"></path>
      <path fill="#5f8cc7" d="M1153 42a3 3 0 110 6 3 3 0 010-6z"></path>
    </g>
    <path fill="#5f8cc7" d="M1153 42a3 3 0 110 6 3 3 0 010-6z"></path>
    <g filter="url(#i)">
      <path fill="none" stroke="#5f8cc7" stroke-width="1.2" d="M876 753a3 3 0 110 6 3 3 0 010-6z" mask="url(&amp;quot;#j&amp;quot;)"></path>
      <path fill="#5f8cc7" d="M876 753a3 3 0 110 6 3 3 0 010-6z"></path>
    </g>
    <g filter="url(#i)">
      <path fill="none" stroke="#5f8cc7" stroke-width="1.2" d="M876 753a3 3 0 110 6 3 3 0 010-6z" mask="url(&amp;quot;#j&amp;quot;)"></path>
      <path fill="#5f8cc7" d="M876 753a3 3 0 110 6 3 3 0 010-6z"></path>
    </g>
    <path fill="#5f8cc7" d="M876 753a3 3 0 110 6 3 3 0 010-6z"></path>
  </symbol>
  <symbol xmlns="http://www.w3.org/2000/svg" viewBox="0 0 215 360" id="clients-dots">
    <defs>
      <clipPath id="a">
        <path fill="#fff" d="M207.719 0c3.555 0 6.437 2.82 6.437 6.297 0 3.478-2.882 6.297-6.437 6.297-3.556 0-6.438-2.82-6.438-6.297 0-3.478 2.882-6.297 6.438-6.297z"></path>
      </clipPath>
      <clipPath id="b">
        <path fill="#fff" d="M158.313 0c3.555 0 6.437 2.82 6.437 6.297 0 3.478-2.882 6.297-6.437 6.297-3.556 0-6.438-2.82-6.438-6.297 0-3.478 2.882-6.297 6.438-6.297z"></path>
      </clipPath>
      <clipPath id="c">
        <path fill="#fff" d="M107.094 0c3.52 0 6.375 2.82 6.375 6.297 0 3.478-2.854 6.297-6.375 6.297s-6.375-2.82-6.375-6.297c0-3.478 2.854-6.297 6.375-6.297z"></path>
      </clipPath>
      <clipPath id="d">
        <path fill="#fff" d="M57.64 0C61.154 0 64 2.82 64 6.297c0 3.478-2.847 6.297-6.36 6.297-3.512 0-6.359-2.82-6.359-6.297 0-3.478 2.847-6.297 6.36-6.297z"></path>
      </clipPath>
      <clipPath id="e">
        <path fill="#fff" d="M6.453 0c3.53 0 6.39 2.82 6.39 6.297 0 3.478-2.86 6.297-6.39 6.297S.063 9.774.063 6.297C.062 2.819 2.922 0 6.452 0z"></path>
      </clipPath>
      <clipPath id="f">
        <path fill="#fff" d="M207.719 43c3.555 0 6.437 2.82 6.437 6.297 0 3.478-2.882 6.297-6.437 6.297-3.556 0-6.438-2.82-6.438-6.297 0-3.478 2.882-6.297 6.438-6.297z"></path>
      </clipPath>
      <clipPath id="g">
        <path fill="#fff" d="M158.313 43c3.555 0 6.437 2.82 6.437 6.297 0 3.478-2.882 6.297-6.437 6.297-3.556 0-6.438-2.82-6.438-6.297 0-3.478 2.882-6.297 6.438-6.297z"></path>
      </clipPath>
      <clipPath id="h">
        <path fill="#fff" d="M107.094 43c3.52 0 6.375 2.82 6.375 6.297 0 3.478-2.854 6.297-6.375 6.297s-6.375-2.82-6.375-6.297c0-3.478 2.854-6.297 6.375-6.297z"></path>
      </clipPath>
      <clipPath id="i">
        <path fill="#fff" d="M57.64 43c3.513 0 6.36 2.82 6.36 6.297 0 3.478-2.847 6.297-6.36 6.297-3.512 0-6.359-2.82-6.359-6.297 0-3.478 2.847-6.297 6.36-6.297z"></path>
      </clipPath>
      <clipPath id="j">
        <path fill="#fff" d="M6.453 43c3.53 0 6.39 2.82 6.39 6.297 0 3.478-2.86 6.297-6.39 6.297s-6.39-2.82-6.39-6.297c0-3.478 2.86-6.297 6.39-6.297z"></path>
      </clipPath>
      <clipPath id="k">
        <path fill="#fff" d="M207.719 86c3.555 0 6.437 2.82 6.437 6.297 0 3.478-2.882 6.297-6.437 6.297-3.556 0-6.438-2.82-6.438-6.297 0-3.478 2.882-6.297 6.438-6.297z"></path>
      </clipPath>
      <clipPath id="l">
        <path fill="#fff" d="M158.313 86c3.555 0 6.437 2.82 6.437 6.297 0 3.478-2.882 6.297-6.437 6.297-3.556 0-6.438-2.82-6.438-6.297 0-3.478 2.882-6.297 6.438-6.297z"></path>
      </clipPath>
      <clipPath id="m">
        <path fill="#fff" d="M107.094 86c3.52 0 6.375 2.82 6.375 6.297 0 3.478-2.854 6.297-6.375 6.297s-6.375-2.82-6.375-6.297c0-3.478 2.854-6.297 6.375-6.297z"></path>
      </clipPath>
      <clipPath id="n">
        <path fill="#fff" d="M57.64 86c3.513 0 6.36 2.82 6.36 6.297 0 3.478-2.847 6.297-6.36 6.297-3.512 0-6.359-2.82-6.359-6.297 0-3.478 2.847-6.297 6.36-6.297z"></path>
      </clipPath>
      <clipPath id="o">
        <path fill="#fff" d="M6.453 86c3.53 0 6.39 2.82 6.39 6.297 0 3.478-2.86 6.297-6.39 6.297s-6.39-2.82-6.39-6.297c0-3.478 2.86-6.297 6.39-6.297z"></path>
      </clipPath>
      <clipPath id="p">
        <path fill="#fff" d="M207.719 130c3.555 0 6.437 2.82 6.437 6.297 0 3.478-2.882 6.297-6.437 6.297-3.556 0-6.438-2.82-6.438-6.297 0-3.478 2.882-6.297 6.438-6.297z"></path>
      </clipPath>
      <clipPath id="q">
        <path fill="#fff" d="M158.313 130c3.555 0 6.437 2.82 6.437 6.297 0 3.478-2.882 6.297-6.437 6.297-3.556 0-6.438-2.82-6.438-6.297 0-3.478 2.882-6.297 6.438-6.297z"></path>
      </clipPath>
      <clipPath id="r">
        <path fill="#fff" d="M107.094 130c3.52 0 6.375 2.82 6.375 6.297 0 3.478-2.854 6.297-6.375 6.297s-6.375-2.82-6.375-6.297c0-3.478 2.854-6.297 6.375-6.297z"></path>
      </clipPath>
      <clipPath id="s">
        <path fill="#fff" d="M57.64 130c3.513 0 6.36 2.82 6.36 6.297 0 3.478-2.847 6.297-6.36 6.297-3.512 0-6.359-2.82-6.359-6.297 0-3.478 2.847-6.297 6.36-6.297z"></path>
      </clipPath>
      <clipPath id="t">
        <path fill="#fff" d="M6.453 130c3.53 0 6.39 2.82 6.39 6.297 0 3.478-2.86 6.297-6.39 6.297s-6.39-2.82-6.39-6.297c0-3.478 2.86-6.297 6.39-6.297z"></path>
      </clipPath>
      <clipPath id="u">
        <path fill="#fff" d="M207.719 173c3.555 0 6.437 2.82 6.437 6.297 0 3.478-2.882 6.297-6.437 6.297-3.556 0-6.438-2.82-6.438-6.297 0-3.478 2.882-6.297 6.438-6.297z"></path>
      </clipPath>
      <clipPath id="v">
        <path fill="#fff" d="M158.313 173c3.555 0 6.437 2.82 6.437 6.297 0 3.478-2.882 6.297-6.437 6.297-3.556 0-6.438-2.82-6.438-6.297 0-3.478 2.882-6.297 6.438-6.297z"></path>
      </clipPath>
      <clipPath id="w">
        <path fill="#fff" d="M107.094 173c3.52 0 6.375 2.82 6.375 6.297 0 3.478-2.854 6.297-6.375 6.297s-6.375-2.82-6.375-6.297c0-3.478 2.854-6.297 6.375-6.297z"></path>
      </clipPath>
      <clipPath id="x">
        <path fill="#fff" d="M57.64 173c3.513 0 6.36 2.82 6.36 6.297 0 3.478-2.847 6.297-6.36 6.297-3.512 0-6.359-2.82-6.359-6.297 0-3.478 2.847-6.297 6.36-6.297z"></path>
      </clipPath>
      <clipPath id="y">
        <path fill="#fff" d="M6.453 173c3.53 0 6.39 2.82 6.39 6.297 0 3.478-2.86 6.297-6.39 6.297s-6.39-2.82-6.39-6.297c0-3.478 2.86-6.297 6.39-6.297z"></path>
      </clipPath>
      <clipPath id="z">
        <path fill="#fff" d="M207.719 216c3.555 0 6.437 2.82 6.437 6.297 0 3.478-2.882 6.297-6.437 6.297-3.556 0-6.438-2.82-6.438-6.297 0-3.478 2.882-6.297 6.438-6.297z"></path>
      </clipPath>
      <clipPath id="A">
        <path fill="#fff" d="M158.313 216c3.555 0 6.437 2.82 6.437 6.297 0 3.478-2.882 6.297-6.437 6.297-3.556 0-6.438-2.82-6.438-6.297 0-3.478 2.882-6.297 6.438-6.297z"></path>
      </clipPath>
      <clipPath id="B">
        <path fill="#fff" d="M107.094 216c3.52 0 6.375 2.82 6.375 6.297 0 3.478-2.854 6.297-6.375 6.297s-6.375-2.82-6.375-6.297c0-3.478 2.854-6.297 6.375-6.297z"></path>
      </clipPath>
      <clipPath id="C">
        <path fill="#fff" d="M57.64 216c3.513 0 6.36 2.82 6.36 6.297 0 3.478-2.847 6.297-6.36 6.297-3.512 0-6.359-2.82-6.359-6.297 0-3.478 2.847-6.297 6.36-6.297z"></path>
      </clipPath>
      <clipPath id="D">
        <path fill="#fff" d="M6.453 216c3.53 0 6.39 2.82 6.39 6.297 0 3.478-2.86 6.297-6.39 6.297s-6.39-2.82-6.39-6.297c0-3.478 2.86-6.297 6.39-6.297z"></path>
      </clipPath>
      <clipPath id="E">
        <path fill="#fff" d="M207.719 261c3.555 0 6.437 2.82 6.437 6.297 0 3.478-2.882 6.297-6.437 6.297-3.556 0-6.438-2.82-6.438-6.297 0-3.478 2.882-6.297 6.438-6.297z"></path>
      </clipPath>
      <clipPath id="F">
        <path fill="#fff" d="M158.313 261c3.555 0 6.437 2.82 6.437 6.297 0 3.478-2.882 6.297-6.437 6.297-3.556 0-6.438-2.82-6.438-6.297 0-3.478 2.882-6.297 6.438-6.297z"></path>
      </clipPath>
      <clipPath id="G">
        <path fill="#fff" d="M107.094 261c3.52 0 6.375 2.82 6.375 6.297 0 3.478-2.854 6.297-6.375 6.297s-6.375-2.82-6.375-6.297c0-3.478 2.854-6.297 6.375-6.297z"></path>
      </clipPath>
      <clipPath id="H">
        <path fill="#fff" d="M57.64 261c3.513 0 6.36 2.82 6.36 6.297 0 3.478-2.847 6.297-6.36 6.297-3.512 0-6.359-2.82-6.359-6.297 0-3.478 2.847-6.297 6.36-6.297z"></path>
      </clipPath>
      <clipPath id="I">
        <path fill="#fff" d="M6.453 261c3.53 0 6.39 2.82 6.39 6.297 0 3.478-2.86 6.297-6.39 6.297s-6.39-2.82-6.39-6.297c0-3.478 2.86-6.297 6.39-6.297z"></path>
      </clipPath>
      <clipPath id="J">
        <path fill="#fff" d="M207.719 304c3.555 0 6.437 2.82 6.437 6.297s-2.882 6.297-6.437 6.297c-3.556 0-6.438-2.82-6.438-6.297 0-3.478 2.882-6.297 6.438-6.297z"></path>
      </clipPath>
      <clipPath id="K">
        <path fill="#fff" d="M158.313 304c3.555 0 6.437 2.82 6.437 6.297s-2.882 6.297-6.437 6.297c-3.556 0-6.438-2.82-6.438-6.297 0-3.478 2.882-6.297 6.438-6.297z"></path>
      </clipPath>
      <clipPath id="L">
        <path fill="#fff" d="M107.094 304c3.52 0 6.375 2.82 6.375 6.297s-2.854 6.297-6.375 6.297-6.375-2.82-6.375-6.297c0-3.478 2.854-6.297 6.375-6.297z"></path>
      </clipPath>
      <clipPath id="M">
        <path fill="#fff" d="M57.64 304c3.513 0 6.36 2.82 6.36 6.297s-2.847 6.297-6.36 6.297c-3.512 0-6.359-2.82-6.359-6.297 0-3.478 2.847-6.297 6.36-6.297z"></path>
      </clipPath>
      <clipPath id="N">
        <path fill="#fff" d="M6.453 304c3.53 0 6.39 2.82 6.39 6.297s-2.86 6.297-6.39 6.297-6.39-2.82-6.39-6.297c0-3.478 2.86-6.297 6.39-6.297z"></path>
      </clipPath>
      <clipPath id="O">
        <path fill="#fff" d="M207.719 347c3.555 0 6.437 2.82 6.437 6.297 0 3.478-2.882 6.297-6.437 6.297-3.556 0-6.438-2.82-6.438-6.297 0-3.478 2.882-6.297 6.438-6.297z"></path>
      </clipPath>
      <clipPath id="P">
        <path fill="#fff" d="M158.313 347c3.555 0 6.437 2.82 6.437 6.297 0 3.478-2.882 6.297-6.437 6.297-3.556 0-6.438-2.82-6.438-6.297 0-3.478 2.882-6.297 6.438-6.297z"></path>
      </clipPath>
      <clipPath id="Q">
        <path fill="#fff" d="M107.094 347c3.52 0 6.375 2.82 6.375 6.297 0 3.478-2.854 6.297-6.375 6.297s-6.375-2.82-6.375-6.297c0-3.478 2.854-6.297 6.375-6.297z"></path>
      </clipPath>
      <clipPath id="R">
        <path fill="#fff" d="M57.64 347c3.513 0 6.36 2.82 6.36 6.297 0 3.478-2.847 6.297-6.36 6.297-3.512 0-6.359-2.82-6.359-6.297 0-3.478 2.847-6.297 6.36-6.297z"></path>
      </clipPath>
      <clipPath id="S">
        <path fill="#fff" d="M6.453 347c3.53 0 6.39 2.82 6.39 6.297 0 3.478-2.86 6.297-6.39 6.297s-6.39-2.82-6.39-6.297c0-3.478 2.86-6.297 6.39-6.297z"></path>
      </clipPath>
    </defs>
    <g opacity=".7" fill="none" stroke="#c6c9cc" stroke-miterlimit="20" stroke-width="2">
      <path d="M207.719 0c3.555 0 6.437 2.82 6.437 6.297 0 3.478-2.882 6.297-6.437 6.297-3.556 0-6.438-2.82-6.438-6.297 0-3.478 2.882-6.297 6.438-6.297z" clip-path="url(&amp;quot;#a&amp;quot;)" opacity=".7"></path>
      <path d="M158.313 0c3.555 0 6.437 2.82 6.437 6.297 0 3.478-2.882 6.297-6.437 6.297-3.556 0-6.438-2.82-6.438-6.297 0-3.478 2.882-6.297 6.438-6.297z" clip-path="url(&amp;quot;#b&amp;quot;)" opacity=".7"></path>
      <path d="M107.094 0c3.52 0 6.375 2.82 6.375 6.297 0 3.478-2.854 6.297-6.375 6.297s-6.375-2.82-6.375-6.297c0-3.478 2.854-6.297 6.375-6.297z" clip-path="url(&amp;quot;#c&amp;quot;)" opacity=".7"></path>
      <path d="M57.64 0C61.154 0 64 2.82 64 6.297c0 3.478-2.847 6.297-6.36 6.297-3.512 0-6.359-2.82-6.359-6.297 0-3.478 2.847-6.297 6.36-6.297z" clip-path="url(&amp;quot;#d&amp;quot;)" opacity=".7"></path>
      <path d="M6.453 0c3.53 0 6.39 2.82 6.39 6.297 0 3.478-2.86 6.297-6.39 6.297S.063 9.774.063 6.297C.062 2.819 2.922 0 6.452 0z" clip-path="url(&amp;quot;#e&amp;quot;)" opacity=".7"></path>
      <path d="M207.719 43c3.555 0 6.437 2.82 6.437 6.297 0 3.478-2.882 6.297-6.437 6.297-3.556 0-6.438-2.82-6.438-6.297 0-3.478 2.882-6.297 6.438-6.297z" clip-path="url(&amp;quot;#f&amp;quot;)" opacity=".7"></path>
      <path d="M158.313 43c3.555 0 6.437 2.82 6.437 6.297 0 3.478-2.882 6.297-6.437 6.297-3.556 0-6.438-2.82-6.438-6.297 0-3.478 2.882-6.297 6.438-6.297z" clip-path="url(&amp;quot;#g&amp;quot;)" opacity=".7"></path>
      <path d="M107.094 43c3.52 0 6.375 2.82 6.375 6.297 0 3.478-2.854 6.297-6.375 6.297s-6.375-2.82-6.375-6.297c0-3.478 2.854-6.297 6.375-6.297z" clip-path="url(&amp;quot;#h&amp;quot;)" opacity=".7"></path>
      <path d="M57.64 43c3.513 0 6.36 2.82 6.36 6.297 0 3.478-2.847 6.297-6.36 6.297-3.512 0-6.359-2.82-6.359-6.297 0-3.478 2.847-6.297 6.36-6.297z" clip-path="url(&amp;quot;#i&amp;quot;)" opacity=".7"></path>
      <path d="M6.453 43c3.53 0 6.39 2.82 6.39 6.297 0 3.478-2.86 6.297-6.39 6.297s-6.39-2.82-6.39-6.297c0-3.478 2.86-6.297 6.39-6.297z" clip-path="url(&amp;quot;#j&amp;quot;)" opacity=".7"></path>
      <path d="M207.719 86c3.555 0 6.437 2.82 6.437 6.297 0 3.478-2.882 6.297-6.437 6.297-3.556 0-6.438-2.82-6.438-6.297 0-3.478 2.882-6.297 6.438-6.297z" clip-path="url(&amp;quot;#k&amp;quot;)" opacity=".7"></path>
      <path d="M158.313 86c3.555 0 6.437 2.82 6.437 6.297 0 3.478-2.882 6.297-6.437 6.297-3.556 0-6.438-2.82-6.438-6.297 0-3.478 2.882-6.297 6.438-6.297z" clip-path="url(&amp;quot;#l&amp;quot;)" opacity=".7"></path>
      <path d="M107.094 86c3.52 0 6.375 2.82 6.375 6.297 0 3.478-2.854 6.297-6.375 6.297s-6.375-2.82-6.375-6.297c0-3.478 2.854-6.297 6.375-6.297z" clip-path="url(&amp;quot;#m&amp;quot;)" opacity=".7"></path>
      <path d="M57.64 86c3.513 0 6.36 2.82 6.36 6.297 0 3.478-2.847 6.297-6.36 6.297-3.512 0-6.359-2.82-6.359-6.297 0-3.478 2.847-6.297 6.36-6.297z" clip-path="url(&amp;quot;#n&amp;quot;)" opacity=".7"></path>
      <path d="M6.453 86c3.53 0 6.39 2.82 6.39 6.297 0 3.478-2.86 6.297-6.39 6.297s-6.39-2.82-6.39-6.297c0-3.478 2.86-6.297 6.39-6.297z" clip-path="url(&amp;quot;#o&amp;quot;)" opacity=".7"></path>
      <path d="M207.719 130c3.555 0 6.437 2.82 6.437 6.297 0 3.478-2.882 6.297-6.437 6.297-3.556 0-6.438-2.82-6.438-6.297 0-3.478 2.882-6.297 6.438-6.297z" clip-path="url(&amp;quot;#p&amp;quot;)" opacity=".7"></path>
      <path d="M158.313 130c3.555 0 6.437 2.82 6.437 6.297 0 3.478-2.882 6.297-6.437 6.297-3.556 0-6.438-2.82-6.438-6.297 0-3.478 2.882-6.297 6.438-6.297z" clip-path="url(&amp;quot;#q&amp;quot;)" opacity=".7"></path>
      <path d="M107.094 130c3.52 0 6.375 2.82 6.375 6.297 0 3.478-2.854 6.297-6.375 6.297s-6.375-2.82-6.375-6.297c0-3.478 2.854-6.297 6.375-6.297z" clip-path="url(&amp;quot;#r&amp;quot;)" opacity=".7"></path>
      <path d="M57.64 130c3.513 0 6.36 2.82 6.36 6.297 0 3.478-2.847 6.297-6.36 6.297-3.512 0-6.359-2.82-6.359-6.297 0-3.478 2.847-6.297 6.36-6.297z" clip-path="url(&amp;quot;#s&amp;quot;)" opacity=".7"></path>
      <path d="M6.453 130c3.53 0 6.39 2.82 6.39 6.297 0 3.478-2.86 6.297-6.39 6.297s-6.39-2.82-6.39-6.297c0-3.478 2.86-6.297 6.39-6.297z" clip-path="url(&amp;quot;#t&amp;quot;)" opacity=".7"></path>
      <path d="M207.719 173c3.555 0 6.437 2.82 6.437 6.297 0 3.478-2.882 6.297-6.437 6.297-3.556 0-6.438-2.82-6.438-6.297 0-3.478 2.882-6.297 6.438-6.297z" clip-path="url(&amp;quot;#u&amp;quot;)" opacity=".7"></path>
      <path d="M158.313 173c3.555 0 6.437 2.82 6.437 6.297 0 3.478-2.882 6.297-6.437 6.297-3.556 0-6.438-2.82-6.438-6.297 0-3.478 2.882-6.297 6.438-6.297z" clip-path="url(&amp;quot;#v&amp;quot;)" opacity=".7"></path>
      <path d="M107.094 173c3.52 0 6.375 2.82 6.375 6.297 0 3.478-2.854 6.297-6.375 6.297s-6.375-2.82-6.375-6.297c0-3.478 2.854-6.297 6.375-6.297z" clip-path="url(&amp;quot;#w&amp;quot;)" opacity=".7"></path>
      <path d="M57.64 173c3.513 0 6.36 2.82 6.36 6.297 0 3.478-2.847 6.297-6.36 6.297-3.512 0-6.359-2.82-6.359-6.297 0-3.478 2.847-6.297 6.36-6.297z" clip-path="url(&amp;quot;#x&amp;quot;)" opacity=".7"></path>
      <path d="M6.453 173c3.53 0 6.39 2.82 6.39 6.297 0 3.478-2.86 6.297-6.39 6.297s-6.39-2.82-6.39-6.297c0-3.478 2.86-6.297 6.39-6.297z" clip-path="url(&amp;quot;#y&amp;quot;)" opacity=".7"></path>
      <path d="M207.719 216c3.555 0 6.437 2.82 6.437 6.297 0 3.478-2.882 6.297-6.437 6.297-3.556 0-6.438-2.82-6.438-6.297 0-3.478 2.882-6.297 6.438-6.297z" clip-path="url(&amp;quot;#z&amp;quot;)" opacity=".7"></path>
      <path d="M158.313 216c3.555 0 6.437 2.82 6.437 6.297 0 3.478-2.882 6.297-6.437 6.297-3.556 0-6.438-2.82-6.438-6.297 0-3.478 2.882-6.297 6.438-6.297z" clip-path="url(&amp;quot;#A&amp;quot;)" opacity=".7"></path>
      <path d="M107.094 216c3.52 0 6.375 2.82 6.375 6.297 0 3.478-2.854 6.297-6.375 6.297s-6.375-2.82-6.375-6.297c0-3.478 2.854-6.297 6.375-6.297z" clip-path="url(&amp;quot;#B&amp;quot;)" opacity=".7"></path>
      <path d="M57.64 216c3.513 0 6.36 2.82 6.36 6.297 0 3.478-2.847 6.297-6.36 6.297-3.512 0-6.359-2.82-6.359-6.297 0-3.478 2.847-6.297 6.36-6.297z" clip-path="url(&amp;quot;#C&amp;quot;)" opacity=".7"></path>
      <path d="M6.453 216c3.53 0 6.39 2.82 6.39 6.297 0 3.478-2.86 6.297-6.39 6.297s-6.39-2.82-6.39-6.297c0-3.478 2.86-6.297 6.39-6.297z" clip-path="url(&amp;quot;#D&amp;quot;)" opacity=".7"></path>
      <path d="M207.719 261c3.555 0 6.437 2.82 6.437 6.297 0 3.478-2.882 6.297-6.437 6.297-3.556 0-6.438-2.82-6.438-6.297 0-3.478 2.882-6.297 6.438-6.297z" clip-path="url(&amp;quot;#E&amp;quot;)" opacity=".7"></path>
      <path d="M158.313 261c3.555 0 6.437 2.82 6.437 6.297 0 3.478-2.882 6.297-6.437 6.297-3.556 0-6.438-2.82-6.438-6.297 0-3.478 2.882-6.297 6.438-6.297z" clip-path="url(&amp;quot;#F&amp;quot;)" opacity=".7"></path>
      <path d="M107.094 261c3.52 0 6.375 2.82 6.375 6.297 0 3.478-2.854 6.297-6.375 6.297s-6.375-2.82-6.375-6.297c0-3.478 2.854-6.297 6.375-6.297z" clip-path="url(&amp;quot;#G&amp;quot;)" opacity=".7"></path>
      <path d="M57.64 261c3.513 0 6.36 2.82 6.36 6.297 0 3.478-2.847 6.297-6.36 6.297-3.512 0-6.359-2.82-6.359-6.297 0-3.478 2.847-6.297 6.36-6.297z" clip-path="url(&amp;quot;#H&amp;quot;)" opacity=".7"></path>
      <path d="M6.453 261c3.53 0 6.39 2.82 6.39 6.297 0 3.478-2.86 6.297-6.39 6.297s-6.39-2.82-6.39-6.297c0-3.478 2.86-6.297 6.39-6.297z" clip-path="url(&amp;quot;#I&amp;quot;)" opacity=".7"></path>
      <path d="M207.719 304c3.555 0 6.437 2.82 6.437 6.297s-2.882 6.297-6.437 6.297c-3.556 0-6.438-2.82-6.438-6.297 0-3.478 2.882-6.297 6.438-6.297z" clip-path="url(&amp;quot;#J&amp;quot;)" opacity=".7"></path>
      <path d="M158.313 304c3.555 0 6.437 2.82 6.437 6.297s-2.882 6.297-6.437 6.297c-3.556 0-6.438-2.82-6.438-6.297 0-3.478 2.882-6.297 6.438-6.297z" clip-path="url(&amp;quot;#K&amp;quot;)" opacity=".7"></path>
      <path d="M107.094 304c3.52 0 6.375 2.82 6.375 6.297s-2.854 6.297-6.375 6.297-6.375-2.82-6.375-6.297c0-3.478 2.854-6.297 6.375-6.297z" clip-path="url(&amp;quot;#L&amp;quot;)" opacity=".7"></path>
      <path d="M57.64 304c3.513 0 6.36 2.82 6.36 6.297s-2.847 6.297-6.36 6.297c-3.512 0-6.359-2.82-6.359-6.297 0-3.478 2.847-6.297 6.36-6.297z" clip-path="url(&amp;quot;#M&amp;quot;)" opacity=".7"></path>
      <path d="M6.453 304c3.53 0 6.39 2.82 6.39 6.297s-2.86 6.297-6.39 6.297-6.39-2.82-6.39-6.297c0-3.478 2.86-6.297 6.39-6.297z" clip-path="url(&amp;quot;#N&amp;quot;)" opacity=".7"></path>
      <path d="M207.719 347c3.555 0 6.437 2.82 6.437 6.297 0 3.478-2.882 6.297-6.437 6.297-3.556 0-6.438-2.82-6.438-6.297 0-3.478 2.882-6.297 6.438-6.297z" clip-path="url(&amp;quot;#O&amp;quot;)" opacity=".7"></path>
      <path d="M158.313 347c3.555 0 6.437 2.82 6.437 6.297 0 3.478-2.882 6.297-6.437 6.297-3.556 0-6.438-2.82-6.438-6.297 0-3.478 2.882-6.297 6.438-6.297z" clip-path="url(&amp;quot;#P&amp;quot;)" opacity=".7"></path>
      <path d="M107.094 347c3.52 0 6.375 2.82 6.375 6.297 0 3.478-2.854 6.297-6.375 6.297s-6.375-2.82-6.375-6.297c0-3.478 2.854-6.297 6.375-6.297z" clip-path="url(&amp;quot;#Q&amp;quot;)" opacity=".7"></path>
      <path d="M57.64 347c3.513 0 6.36 2.82 6.36 6.297 0 3.478-2.847 6.297-6.36 6.297-3.512 0-6.359-2.82-6.359-6.297 0-3.478 2.847-6.297 6.36-6.297z" clip-path="url(&amp;quot;#R&amp;quot;)" opacity=".7"></path>
      <path d="M6.453 347c3.53 0 6.39 2.82 6.39 6.297 0 3.478-2.86 6.297-6.39 6.297s-6.39-2.82-6.39-6.297c0-3.478 2.86-6.297 6.39-6.297z" clip-path="url(&amp;quot;#S&amp;quot;)" opacity=".7"></path>
    </g>
  </symbol>
  <symbol xmlns="http://www.w3.org/2000/svg" viewBox="0 0 334 380" id="left-dots">
    <defs>
      <clipPath id="a">
        <path fill="#fff" d="M61.281 0c3.556 0 6.438 2.82 6.438 6.297 0 3.478-2.882 6.297-6.438 6.297-3.555 0-6.437-2.82-6.437-6.297C54.844 2.819 57.726 0 61.28 0z"></path>
      </clipPath>
      <clipPath id="b">
        <path fill="#fff" d="M110.688 0c3.555 0 6.437 2.82 6.437 6.297 0 3.478-2.882 6.297-6.437 6.297-3.556 0-6.438-2.82-6.438-6.297 0-3.478 2.882-6.297 6.438-6.297z"></path>
      </clipPath>
      <clipPath id="c">
        <path fill="#fff" d="M161.906 0c3.521 0 6.375 2.82 6.375 6.297 0 3.478-2.854 6.297-6.375 6.297-3.52 0-6.375-2.82-6.375-6.297 0-3.478 2.854-6.297 6.375-6.297z"></path>
      </clipPath>
      <clipPath id="d">
        <path fill="#fff" d="M211.36 0c3.512 0 6.359 2.82 6.359 6.297 0 3.478-2.847 6.297-6.36 6.297-3.512 0-6.359-2.82-6.359-6.297C205 2.819 207.847 0 211.36 0z"></path>
      </clipPath>
      <clipPath id="e">
        <path fill="#fff" d="M262.547 0c3.53 0 6.39 2.82 6.39 6.297 0 3.478-2.86 6.297-6.39 6.297s-6.39-2.82-6.39-6.297c0-3.478 2.86-6.297 6.39-6.297z"></path>
      </clipPath>
      <clipPath id="f">
        <path fill="#fff" d="M43 48.781c3.538 0 6.406 2.847 6.406 6.36 0 3.512-2.868 6.359-6.406 6.359s-6.406-2.847-6.406-6.36c0-3.512 2.868-6.359 6.406-6.359z"></path>
      </clipPath>
      <clipPath id="g">
        <path fill="#fff" d="M92.422 48.781c3.547 0 6.422 2.847 6.422 6.36 0 3.512-2.875 6.359-6.422 6.359-3.547 0-6.422-2.847-6.422-6.36 0-3.512 2.875-6.359 6.422-6.359z"></path>
      </clipPath>
      <clipPath id="h">
        <path fill="#fff" d="M143.625 48.781c3.52 0 6.375 2.847 6.375 6.36 0 3.512-2.854 6.359-6.375 6.359-3.52 0-6.375-2.847-6.375-6.36 0-3.512 2.854-6.359 6.375-6.359z"></path>
      </clipPath>
      <clipPath id="i">
        <path fill="#fff" d="M193.031 48.781c3.521 0 6.375 2.847 6.375 6.36 0 3.512-2.854 6.359-6.375 6.359-3.52 0-6.375-2.847-6.375-6.36 0-3.512 2.854-6.359 6.375-6.359z"></path>
      </clipPath>
      <clipPath id="j">
        <path fill="#fff" d="M244.25 48.781c3.555 0 6.437 2.847 6.437 6.36 0 3.512-2.882 6.359-6.437 6.359s-6.437-2.847-6.437-6.36c0-3.512 2.882-6.359 6.437-6.359z"></path>
      </clipPath>
      <clipPath id="k">
        <path fill="#fff" d="M24.703 97.594c3.547 0 6.422 2.84 6.422 6.343 0 3.504-2.875 6.344-6.422 6.344-3.547 0-6.422-2.84-6.422-6.344 0-3.503 2.875-6.343 6.422-6.343z"></path>
      </clipPath>
      <clipPath id="l">
        <path fill="#fff" d="M74.125 97.594c3.538 0 6.406 2.84 6.406 6.343 0 3.504-2.868 6.344-6.406 6.344s-6.406-2.84-6.406-6.344c0-3.503 2.868-6.343 6.406-6.343z"></path>
      </clipPath>
      <clipPath id="m">
        <path fill="#fff" d="M125.344 97.594c3.538 0 6.406 2.84 6.406 6.343 0 3.504-2.868 6.344-6.406 6.344s-6.407-2.84-6.407-6.344c0-3.503 2.869-6.343 6.407-6.343z"></path>
      </clipPath>
      <clipPath id="n">
        <path fill="#fff" d="M174.703 97.594c3.547 0 6.422 2.84 6.422 6.343 0 3.504-2.875 6.344-6.422 6.344-3.547 0-6.422-2.84-6.422-6.344 0-3.503 2.875-6.343 6.422-6.343z"></path>
      </clipPath>
      <clipPath id="o">
        <path fill="#fff" d="M225.984 97.594c3.547 0 6.422 2.84 6.422 6.343 0 3.504-2.875 6.344-6.422 6.344-3.546 0-6.421-2.84-6.421-6.344 0-3.503 2.875-6.343 6.421-6.343z"></path>
      </clipPath>
      <clipPath id="p">
        <path fill="#fff" d="M6.437 146.438c3.556 0 6.438 2.819 6.438 6.296 0 3.478-2.882 6.297-6.438 6.297-3.555 0-6.437-2.819-6.437-6.297 0-3.477 2.882-6.296 6.437-6.296z"></path>
      </clipPath>
      <clipPath id="q">
        <path fill="#fff" d="M55.828 146.438c3.547 0 6.422 2.819 6.422 6.296 0 3.478-2.875 6.297-6.422 6.297-3.547 0-6.422-2.819-6.422-6.297 0-3.477 2.875-6.296 6.422-6.296z"></path>
      </clipPath>
      <clipPath id="r">
        <path fill="#fff" d="M107.047 146.438c3.512 0 6.36 2.819 6.36 6.296 0 3.478-2.848 6.297-6.36 6.297-3.512 0-6.36-2.819-6.36-6.297 0-3.477 2.848-6.296 6.36-6.296z"></path>
      </clipPath>
      <clipPath id="s">
        <path fill="#fff" d="M156.437 146.438c3.556 0 6.438 2.819 6.438 6.296 0 3.478-2.882 6.297-6.438 6.297-3.555 0-6.437-2.819-6.437-6.297 0-3.477 2.882-6.296 6.437-6.296z"></path>
      </clipPath>
      <clipPath id="t">
        <path fill="#fff" d="M207.688 146.438c3.538 0 6.406 2.819 6.406 6.296 0 3.478-2.868 6.297-6.406 6.297-3.539 0-6.407-2.819-6.407-6.297 0-3.477 2.868-6.296 6.407-6.296z"></path>
      </clipPath>
      <clipPath id="u">
        <path fill="#fff" d="M126.313 220.969c3.538 0 6.406 2.819 6.406 6.297 0 3.477-2.868 6.296-6.406 6.296-3.539 0-6.407-2.819-6.407-6.296 0-3.478 2.868-6.297 6.407-6.297z"></path>
      </clipPath>
      <clipPath id="v">
        <path fill="#fff" d="M175.734 220.969c3.547 0 6.422 2.819 6.422 6.297 0 3.477-2.875 6.296-6.422 6.296-3.546 0-6.421-2.819-6.421-6.296 0-3.478 2.875-6.297 6.421-6.297z"></path>
      </clipPath>
      <clipPath id="w">
        <path fill="#fff" d="M226.953 220.969c3.512 0 6.36 2.819 6.36 6.297 0 3.477-2.848 6.296-6.36 6.296-3.512 0-6.36-2.819-6.36-6.296 0-3.478 2.848-6.297 6.36-6.297z"></path>
      </clipPath>
      <clipPath id="x">
        <path fill="#fff" d="M276.344 220.969c3.52 0 6.375 2.819 6.375 6.297 0 3.477-2.854 6.296-6.375 6.296s-6.375-2.819-6.375-6.296c0-3.478 2.854-6.297 6.375-6.297z"></path>
      </clipPath>
      <clipPath id="y">
        <path fill="#fff" d="M327.562 220.969c3.556 0 6.438 2.819 6.438 6.297 0 3.477-2.882 6.296-6.438 6.296-3.555 0-6.437-2.819-6.437-6.296 0-3.478 2.882-6.297 6.437-6.297z"></path>
      </clipPath>
      <clipPath id="z">
        <path fill="#fff" d="M108.016 269.719c3.546 0 6.422 2.84 6.422 6.344 0 3.503-2.876 6.343-6.422 6.343-3.547 0-6.422-2.84-6.422-6.343 0-3.504 2.875-6.344 6.422-6.344z"></path>
      </clipPath>
      <clipPath id="A">
        <path fill="#fff" d="M157.437 269.719c3.539 0 6.407 2.84 6.407 6.344 0 3.503-2.868 6.343-6.407 6.343-3.538 0-6.406-2.84-6.406-6.343 0-3.504 2.868-6.344 6.406-6.344z"></path>
      </clipPath>
      <clipPath id="B">
        <path fill="#fff" d="M208.656 269.719c3.538 0 6.406 2.84 6.406 6.344 0 3.503-2.868 6.343-6.406 6.343s-6.406-2.84-6.406-6.343c0-3.504 2.868-6.344 6.406-6.344z"></path>
      </clipPath>
      <clipPath id="C">
        <path fill="#fff" d="M258.094 269.719c3.52 0 6.375 2.84 6.375 6.344 0 3.503-2.854 6.343-6.375 6.343s-6.375-2.84-6.375-6.343c0-3.504 2.854-6.344 6.375-6.344z"></path>
      </clipPath>
      <clipPath id="D">
        <path fill="#fff" d="M309.297 269.719c3.547 0 6.422 2.84 6.422 6.344 0 3.503-2.875 6.343-6.422 6.343-3.547 0-6.422-2.84-6.422-6.343 0-3.504 2.875-6.344 6.422-6.344z"></path>
      </clipPath>
      <clipPath id="E">
        <path fill="#fff" d="M89.75 318.5c3.555 0 6.438 2.847 6.438 6.36 0 3.512-2.883 6.359-6.438 6.359-3.555 0-6.438-2.847-6.438-6.36 0-3.512 2.883-6.359 6.438-6.359z"></path>
      </clipPath>
      <clipPath id="F">
        <path fill="#fff" d="M139.156 318.5c3.556 0 6.438 2.847 6.438 6.36 0 3.512-2.882 6.359-6.438 6.359-3.555 0-6.437-2.847-6.437-6.36 0-3.512 2.882-6.359 6.437-6.359z"></path>
      </clipPath>
      <clipPath id="G">
        <path fill="#fff" d="M190.375 318.5c3.52 0 6.375 2.847 6.375 6.36 0 3.512-2.854 6.359-6.375 6.359-3.52 0-6.375-2.847-6.375-6.36 0-3.512 2.854-6.359 6.375-6.359z"></path>
      </clipPath>
      <clipPath id="H">
        <path fill="#fff" d="M239.719 318.5c3.538 0 6.406 2.847 6.406 6.36 0 3.512-2.868 6.359-6.406 6.359s-6.407-2.847-6.407-6.36c0-3.512 2.869-6.359 6.407-6.359z"></path>
      </clipPath>
      <clipPath id="I">
        <path fill="#fff" d="M291 318.5c3.538 0 6.406 2.847 6.406 6.36 0 3.512-2.868 6.359-6.406 6.359s-6.406-2.847-6.406-6.36c0-3.512 2.868-6.359 6.406-6.359z"></path>
      </clipPath>
      <clipPath id="J">
        <path fill="#fff" d="M71.453 367.406c3.53 0 6.39 2.82 6.39 6.297 0 3.478-2.86 6.297-6.39 6.297s-6.39-2.82-6.39-6.297 2.86-6.297 6.39-6.297z"></path>
      </clipPath>
      <clipPath id="K">
        <path fill="#fff" d="M120.844 367.406c3.538 0 6.406 2.82 6.406 6.297 0 3.478-2.868 6.297-6.406 6.297s-6.406-2.82-6.406-6.297 2.868-6.297 6.406-6.297z"></path>
      </clipPath>
      <clipPath id="L">
        <path fill="#fff" d="M172.094 367.406c3.52 0 6.375 2.82 6.375 6.297 0 3.478-2.854 6.297-6.375 6.297s-6.375-2.82-6.375-6.297 2.854-6.297 6.375-6.297z"></path>
      </clipPath>
      <clipPath id="M">
        <path fill="#fff" d="M221.469 367.406c3.538 0 6.406 2.82 6.406 6.297 0 3.478-2.868 6.297-6.406 6.297s-6.407-2.82-6.407-6.297 2.869-6.297 6.407-6.297z"></path>
      </clipPath>
      <clipPath id="N">
        <path fill="#fff" d="M272.719 367.406c3.555 0 6.437 2.82 6.437 6.297 0 3.478-2.882 6.297-6.437 6.297-3.556 0-6.438-2.82-6.438-6.297s2.882-6.297 6.438-6.297z"></path>
      </clipPath>
    </defs>
    <g opacity=".7" fill="none" stroke-miterlimit="20" stroke-width="2">
      <path stroke="#476b93" d="M61.281 0c3.556 0 6.438 2.82 6.438 6.297 0 3.478-2.882 6.297-6.438 6.297-3.555 0-6.437-2.82-6.437-6.297C54.844 2.819 57.726 0 61.28 0z" clip-path="url(&amp;quot;#a&amp;quot;)" opacity=".7"></path>
      <path stroke="#476b93" d="M110.688 0c3.555 0 6.437 2.82 6.437 6.297 0 3.478-2.882 6.297-6.437 6.297-3.556 0-6.438-2.82-6.438-6.297 0-3.478 2.882-6.297 6.438-6.297z" clip-path="url(&amp;quot;#b&amp;quot;)" opacity=".7"></path>
      <path stroke="#476b93" d="M161.906 0c3.521 0 6.375 2.82 6.375 6.297 0 3.478-2.854 6.297-6.375 6.297-3.52 0-6.375-2.82-6.375-6.297 0-3.478 2.854-6.297 6.375-6.297z" clip-path="url(&amp;quot;#c&amp;quot;)" opacity=".7"></path>
      <path stroke="#476b93" d="M211.36 0c3.512 0 6.359 2.82 6.359 6.297 0 3.478-2.847 6.297-6.36 6.297-3.512 0-6.359-2.82-6.359-6.297C205 2.819 207.847 0 211.36 0z" clip-path="url(&amp;quot;#d&amp;quot;)" opacity=".7"></path>
      <path stroke="#476b93" d="M262.547 0c3.53 0 6.39 2.82 6.39 6.297 0 3.478-2.86 6.297-6.39 6.297s-6.39-2.82-6.39-6.297c0-3.478 2.86-6.297 6.39-6.297z" clip-path="url(&amp;quot;#e&amp;quot;)" opacity=".7"></path>
      <path stroke="#476b93" d="M43 48.781c3.538 0 6.406 2.847 6.406 6.36 0 3.512-2.868 6.359-6.406 6.359s-6.406-2.847-6.406-6.36c0-3.512 2.868-6.359 6.406-6.359z" clip-path="url(&amp;quot;#f&amp;quot;)" opacity=".7"></path>
      <path stroke="#476b93" d="M92.422 48.781c3.547 0 6.422 2.847 6.422 6.36 0 3.512-2.875 6.359-6.422 6.359-3.547 0-6.422-2.847-6.422-6.36 0-3.512 2.875-6.359 6.422-6.359z" clip-path="url(&amp;quot;#g&amp;quot;)" opacity=".7"></path>
      <path stroke="#fff" d="M143.625 48.781c3.52 0 6.375 2.847 6.375 6.36 0 3.512-2.854 6.359-6.375 6.359-3.52 0-6.375-2.847-6.375-6.36 0-3.512 2.854-6.359 6.375-6.359z" clip-path="url(&amp;quot;#h&amp;quot;)" opacity=".7"></path>
      <path stroke="#476b93" d="M193.031 48.781c3.521 0 6.375 2.847 6.375 6.36 0 3.512-2.854 6.359-6.375 6.359-3.52 0-6.375-2.847-6.375-6.36 0-3.512 2.854-6.359 6.375-6.359z" clip-path="url(&amp;quot;#i&amp;quot;)" opacity=".7"></path>
      <path stroke="#476b93" d="M244.25 48.781c3.555 0 6.437 2.847 6.437 6.36 0 3.512-2.882 6.359-6.437 6.359s-6.437-2.847-6.437-6.36c0-3.512 2.882-6.359 6.437-6.359z" clip-path="url(&amp;quot;#j&amp;quot;)" opacity=".7"></path>
      <path stroke="#476b93" d="M24.703 97.594c3.547 0 6.422 2.84 6.422 6.343 0 3.504-2.875 6.344-6.422 6.344-3.547 0-6.422-2.84-6.422-6.344 0-3.503 2.875-6.343 6.422-6.343z" clip-path="url(&amp;quot;#k&amp;quot;)" opacity=".7"></path>
      <path stroke="#476b93" d="M74.125 97.594c3.538 0 6.406 2.84 6.406 6.343 0 3.504-2.868 6.344-6.406 6.344s-6.406-2.84-6.406-6.344c0-3.503 2.868-6.343 6.406-6.343z" clip-path="url(&amp;quot;#l&amp;quot;)" opacity=".7"></path>
      <path stroke="#476b93" d="M125.344 97.594c3.538 0 6.406 2.84 6.406 6.343 0 3.504-2.868 6.344-6.406 6.344s-6.407-2.84-6.407-6.344c0-3.503 2.869-6.343 6.407-6.343z" clip-path="url(&amp;quot;#m&amp;quot;)" opacity=".7"></path>
      <path stroke="#476b93" d="M174.703 97.594c3.547 0 6.422 2.84 6.422 6.343 0 3.504-2.875 6.344-6.422 6.344-3.547 0-6.422-2.84-6.422-6.344 0-3.503 2.875-6.343 6.422-6.343z" clip-path="url(&amp;quot;#n&amp;quot;)" opacity=".7"></path>
      <path stroke="#476b93" d="M225.984 97.594c3.547 0 6.422 2.84 6.422 6.343 0 3.504-2.875 6.344-6.422 6.344-3.546 0-6.421-2.84-6.421-6.344 0-3.503 2.875-6.343 6.421-6.343z" clip-path="url(&amp;quot;#o&amp;quot;)" opacity=".7"></path>
      <path stroke="#476b93" d="M6.437 146.438c3.556 0 6.438 2.819 6.438 6.296 0 3.478-2.882 6.297-6.438 6.297-3.555 0-6.437-2.819-6.437-6.297 0-3.477 2.882-6.296 6.437-6.296z" clip-path="url(&amp;quot;#p&amp;quot;)" opacity=".7"></path>
      <path stroke="#476b93" d="M55.828 146.438c3.547 0 6.422 2.819 6.422 6.296 0 3.478-2.875 6.297-6.422 6.297-3.547 0-6.422-2.819-6.422-6.297 0-3.477 2.875-6.296 6.422-6.296z" clip-path="url(&amp;quot;#q&amp;quot;)" opacity=".7"></path>
      <path stroke="#476b93" d="M107.047 146.438c3.512 0 6.36 2.819 6.36 6.296 0 3.478-2.848 6.297-6.36 6.297-3.512 0-6.36-2.819-6.36-6.297 0-3.477 2.848-6.296 6.36-6.296z" clip-path="url(&amp;quot;#r&amp;quot;)" opacity=".7"></path>
      <path stroke="#476b93" d="M156.437 146.438c3.556 0 6.438 2.819 6.438 6.296 0 3.478-2.882 6.297-6.438 6.297-3.555 0-6.437-2.819-6.437-6.297 0-3.477 2.882-6.296 6.437-6.296z" clip-path="url(&amp;quot;#s&amp;quot;)" opacity=".7"></path>
      <path stroke="#476b93" d="M207.688 146.438c3.538 0 6.406 2.819 6.406 6.296 0 3.478-2.868 6.297-6.406 6.297-3.539 0-6.407-2.819-6.407-6.297 0-3.477 2.868-6.296 6.407-6.296z" clip-path="url(&amp;quot;#t&amp;quot;)" opacity=".7"></path>
      <path stroke="#476b93" d="M126.313 220.969c3.538 0 6.406 2.819 6.406 6.297 0 3.477-2.868 6.296-6.406 6.296-3.539 0-6.407-2.819-6.407-6.296 0-3.478 2.868-6.297 6.407-6.297z" clip-path="url(&amp;quot;#u&amp;quot;)" opacity=".7"></path>
      <path stroke="#476b93" d="M175.734 220.969c3.547 0 6.422 2.819 6.422 6.297 0 3.477-2.875 6.296-6.422 6.296-3.546 0-6.421-2.819-6.421-6.296 0-3.478 2.875-6.297 6.421-6.297z" clip-path="url(&amp;quot;#v&amp;quot;)" opacity=".7"></path>
      <path stroke="#476b93" d="M226.953 220.969c3.512 0 6.36 2.819 6.36 6.297 0 3.477-2.848 6.296-6.36 6.296-3.512 0-6.36-2.819-6.36-6.296 0-3.478 2.848-6.297 6.36-6.297z" clip-path="url(&amp;quot;#w&amp;quot;)" opacity=".7"></path>
      <path stroke="#476b93" d="M276.344 220.969c3.52 0 6.375 2.819 6.375 6.297 0 3.477-2.854 6.296-6.375 6.296s-6.375-2.819-6.375-6.296c0-3.478 2.854-6.297 6.375-6.297z" clip-path="url(&amp;quot;#x&amp;quot;)" opacity=".7"></path>
      <path stroke="#476b93" d="M327.562 220.969c3.556 0 6.438 2.819 6.438 6.297 0 3.477-2.882 6.296-6.438 6.296-3.555 0-6.437-2.819-6.437-6.296 0-3.478 2.882-6.297 6.437-6.297z" clip-path="url(&amp;quot;#y&amp;quot;)" opacity=".7"></path>
      <path stroke="#476b93" d="M108.016 269.719c3.546 0 6.422 2.84 6.422 6.344 0 3.503-2.876 6.343-6.422 6.343-3.547 0-6.422-2.84-6.422-6.343 0-3.504 2.875-6.344 6.422-6.344z" clip-path="url(&amp;quot;#z&amp;quot;)" opacity=".7"></path>
      <path stroke="#476b93" d="M157.437 269.719c3.539 0 6.407 2.84 6.407 6.344 0 3.503-2.868 6.343-6.407 6.343-3.538 0-6.406-2.84-6.406-6.343 0-3.504 2.868-6.344 6.406-6.344z" clip-path="url(&amp;quot;#A&amp;quot;)" opacity=".7"></path>
      <path stroke="#476b93" d="M208.656 269.719c3.538 0 6.406 2.84 6.406 6.344 0 3.503-2.868 6.343-6.406 6.343s-6.406-2.84-6.406-6.343c0-3.504 2.868-6.344 6.406-6.344z" clip-path="url(&amp;quot;#B&amp;quot;)" opacity=".7"></path>
      <path stroke="#476b93" d="M258.094 269.719c3.52 0 6.375 2.84 6.375 6.344 0 3.503-2.854 6.343-6.375 6.343s-6.375-2.84-6.375-6.343c0-3.504 2.854-6.344 6.375-6.344z" clip-path="url(&amp;quot;#C&amp;quot;)" opacity=".7"></path>
      <path stroke="#476b93" d="M309.297 269.719c3.547 0 6.422 2.84 6.422 6.344 0 3.503-2.875 6.343-6.422 6.343-3.547 0-6.422-2.84-6.422-6.343 0-3.504 2.875-6.344 6.422-6.344z" clip-path="url(&amp;quot;#D&amp;quot;)" opacity=".7"></path>
      <path stroke="#476b93" d="M89.75 318.5c3.555 0 6.438 2.847 6.438 6.36 0 3.512-2.883 6.359-6.438 6.359-3.555 0-6.438-2.847-6.438-6.36 0-3.512 2.883-6.359 6.438-6.359z" clip-path="url(&amp;quot;#E&amp;quot;)" opacity=".7"></path>
      <path stroke="#476b93" d="M139.156 318.5c3.556 0 6.438 2.847 6.438 6.36 0 3.512-2.882 6.359-6.438 6.359-3.555 0-6.437-2.847-6.437-6.36 0-3.512 2.882-6.359 6.437-6.359z" clip-path="url(&amp;quot;#F&amp;quot;)" opacity=".7"></path>
      <path stroke="#fff" d="M190.375 318.5c3.52 0 6.375 2.847 6.375 6.36 0 3.512-2.854 6.359-6.375 6.359-3.52 0-6.375-2.847-6.375-6.36 0-3.512 2.854-6.359 6.375-6.359z" clip-path="url(&amp;quot;#G&amp;quot;)" opacity=".7"></path>
      <path stroke="#476b93" d="M239.719 318.5c3.538 0 6.406 2.847 6.406 6.36 0 3.512-2.868 6.359-6.406 6.359s-6.407-2.847-6.407-6.36c0-3.512 2.869-6.359 6.407-6.359z" clip-path="url(&amp;quot;#H&amp;quot;)" opacity=".7"></path>
      <path stroke="#476b93" d="M291 318.5c3.538 0 6.406 2.847 6.406 6.36 0 3.512-2.868 6.359-6.406 6.359s-6.406-2.847-6.406-6.36c0-3.512 2.868-6.359 6.406-6.359z" clip-path="url(&amp;quot;#I&amp;quot;)" opacity=".7"></path>
      <path stroke="#476b93" d="M71.453 367.406c3.53 0 6.39 2.82 6.39 6.297 0 3.478-2.86 6.297-6.39 6.297s-6.39-2.82-6.39-6.297 2.86-6.297 6.39-6.297z" clip-path="url(&amp;quot;#J&amp;quot;)" opacity=".7"></path>
      <path stroke="#476b93" d="M120.844 367.406c3.538 0 6.406 2.82 6.406 6.297 0 3.478-2.868 6.297-6.406 6.297s-6.406-2.82-6.406-6.297 2.868-6.297 6.406-6.297z" clip-path="url(&amp;quot;#K&amp;quot;)" opacity=".7"></path>
      <path stroke="#476b93" d="M172.094 367.406c3.52 0 6.375 2.82 6.375 6.297 0 3.478-2.854 6.297-6.375 6.297s-6.375-2.82-6.375-6.297 2.854-6.297 6.375-6.297z" clip-path="url(&amp;quot;#L&amp;quot;)" opacity=".7"></path>
      <path stroke="#476b93" d="M221.469 367.406c3.538 0 6.406 2.82 6.406 6.297 0 3.478-2.868 6.297-6.406 6.297s-6.407-2.82-6.407-6.297 2.869-6.297 6.407-6.297z" clip-path="url(&amp;quot;#M&amp;quot;)" opacity=".7"></path>
      <path stroke="#476b93" d="M272.719 367.406c3.555 0 6.437 2.82 6.437 6.297 0 3.478-2.882 6.297-6.437 6.297-3.556 0-6.438-2.82-6.438-6.297s2.882-6.297 6.438-6.297z" clip-path="url(&amp;quot;#N&amp;quot;)" opacity=".7"></path>
    </g>
  </symbol>
  <symbol xmlns="http://www.w3.org/2000/svg" viewBox="0 0 1138 956" id="lines">
    <path fill="#fff" d="M0 0h1v956H0zm277 0h1v956h-1zm291 0h1v956h-1zm292 0h1v956h-1zm277 0h1v956h-1z" opacity=".1"></path>
  </symbol>
  <symbol xmlns="http://www.w3.org/2000/svg" viewBox="0 0 215 360" id="right-dots">
    <defs>
      <clipPath id="a">
        <path fill="#fff" d="M207.719 0c3.555 0 6.437 2.82 6.437 6.297 0 3.478-2.882 6.297-6.437 6.297-3.556 0-6.438-2.82-6.438-6.297 0-3.478 2.882-6.297 6.438-6.297z"></path>
      </clipPath>
      <clipPath id="b">
        <path fill="#fff" d="M158.313 0c3.555 0 6.437 2.82 6.437 6.297 0 3.478-2.882 6.297-6.437 6.297-3.556 0-6.438-2.82-6.438-6.297 0-3.478 2.882-6.297 6.438-6.297z"></path>
      </clipPath>
      <clipPath id="c">
        <path fill="#fff" d="M107.094 0c3.52 0 6.375 2.82 6.375 6.297 0 3.478-2.854 6.297-6.375 6.297s-6.375-2.82-6.375-6.297c0-3.478 2.854-6.297 6.375-6.297z"></path>
      </clipPath>
      <clipPath id="d">
        <path fill="#fff" d="M57.64 0C61.154 0 64 2.82 64 6.297c0 3.478-2.847 6.297-6.36 6.297-3.512 0-6.359-2.82-6.359-6.297 0-3.478 2.847-6.297 6.36-6.297z"></path>
      </clipPath>
      <clipPath id="e">
        <path fill="#fff" d="M6.453 0c3.53 0 6.39 2.82 6.39 6.297 0 3.478-2.86 6.297-6.39 6.297S.063 9.774.063 6.297C.062 2.819 2.922 0 6.452 0z"></path>
      </clipPath>
      <clipPath id="f">
        <path fill="#fff" d="M207.719 43c3.555 0 6.437 2.82 6.437 6.297 0 3.478-2.882 6.297-6.437 6.297-3.556 0-6.438-2.82-6.438-6.297 0-3.478 2.882-6.297 6.438-6.297z"></path>
      </clipPath>
      <clipPath id="g">
        <path fill="#fff" d="M158.313 43c3.555 0 6.437 2.82 6.437 6.297 0 3.478-2.882 6.297-6.437 6.297-3.556 0-6.438-2.82-6.438-6.297 0-3.478 2.882-6.297 6.438-6.297z"></path>
      </clipPath>
      <clipPath id="h">
        <path fill="#fff" d="M107.094 43c3.52 0 6.375 2.82 6.375 6.297 0 3.478-2.854 6.297-6.375 6.297s-6.375-2.82-6.375-6.297c0-3.478 2.854-6.297 6.375-6.297z"></path>
      </clipPath>
      <clipPath id="i">
        <path fill="#fff" d="M57.64 43c3.513 0 6.36 2.82 6.36 6.297 0 3.478-2.847 6.297-6.36 6.297-3.512 0-6.359-2.82-6.359-6.297 0-3.478 2.847-6.297 6.36-6.297z"></path>
      </clipPath>
      <clipPath id="j">
        <path fill="#fff" d="M6.453 43c3.53 0 6.39 2.82 6.39 6.297 0 3.478-2.86 6.297-6.39 6.297s-6.39-2.82-6.39-6.297c0-3.478 2.86-6.297 6.39-6.297z"></path>
      </clipPath>
      <clipPath id="k">
        <path fill="#fff" d="M207.719 86c3.555 0 6.437 2.82 6.437 6.297 0 3.478-2.882 6.297-6.437 6.297-3.556 0-6.438-2.82-6.438-6.297 0-3.478 2.882-6.297 6.438-6.297z"></path>
      </clipPath>
      <clipPath id="l">
        <path fill="#fff" d="M158.313 86c3.555 0 6.437 2.82 6.437 6.297 0 3.478-2.882 6.297-6.437 6.297-3.556 0-6.438-2.82-6.438-6.297 0-3.478 2.882-6.297 6.438-6.297z"></path>
      </clipPath>
      <clipPath id="m">
        <path fill="#fff" d="M107.094 86c3.52 0 6.375 2.82 6.375 6.297 0 3.478-2.854 6.297-6.375 6.297s-6.375-2.82-6.375-6.297c0-3.478 2.854-6.297 6.375-6.297z"></path>
      </clipPath>
      <clipPath id="n">
        <path fill="#fff" d="M57.64 86c3.513 0 6.36 2.82 6.36 6.297 0 3.478-2.847 6.297-6.36 6.297-3.512 0-6.359-2.82-6.359-6.297 0-3.478 2.847-6.297 6.36-6.297z"></path>
      </clipPath>
      <clipPath id="o">
        <path fill="#fff" d="M6.453 86c3.53 0 6.39 2.82 6.39 6.297 0 3.478-2.86 6.297-6.39 6.297s-6.39-2.82-6.39-6.297c0-3.478 2.86-6.297 6.39-6.297z"></path>
      </clipPath>
      <clipPath id="p">
        <path fill="#fff" d="M207.719 130c3.555 0 6.437 2.82 6.437 6.297 0 3.478-2.882 6.297-6.437 6.297-3.556 0-6.438-2.82-6.438-6.297 0-3.478 2.882-6.297 6.438-6.297z"></path>
      </clipPath>
      <clipPath id="q">
        <path fill="#fff" d="M158.313 130c3.555 0 6.437 2.82 6.437 6.297 0 3.478-2.882 6.297-6.437 6.297-3.556 0-6.438-2.82-6.438-6.297 0-3.478 2.882-6.297 6.438-6.297z"></path>
      </clipPath>
      <clipPath id="r">
        <path fill="#fff" d="M107.094 130c3.52 0 6.375 2.82 6.375 6.297 0 3.478-2.854 6.297-6.375 6.297s-6.375-2.82-6.375-6.297c0-3.478 2.854-6.297 6.375-6.297z"></path>
      </clipPath>
      <clipPath id="s">
        <path fill="#fff" d="M57.64 130c3.513 0 6.36 2.82 6.36 6.297 0 3.478-2.847 6.297-6.36 6.297-3.512 0-6.359-2.82-6.359-6.297 0-3.478 2.847-6.297 6.36-6.297z"></path>
      </clipPath>
      <clipPath id="t">
        <path fill="#fff" d="M6.453 130c3.53 0 6.39 2.82 6.39 6.297 0 3.478-2.86 6.297-6.39 6.297s-6.39-2.82-6.39-6.297c0-3.478 2.86-6.297 6.39-6.297z"></path>
      </clipPath>
      <clipPath id="u">
        <path fill="#fff" d="M207.719 173c3.555 0 6.437 2.82 6.437 6.297 0 3.478-2.882 6.297-6.437 6.297-3.556 0-6.438-2.82-6.438-6.297 0-3.478 2.882-6.297 6.438-6.297z"></path>
      </clipPath>
      <clipPath id="v">
        <path fill="#fff" d="M158.313 173c3.555 0 6.437 2.82 6.437 6.297 0 3.478-2.882 6.297-6.437 6.297-3.556 0-6.438-2.82-6.438-6.297 0-3.478 2.882-6.297 6.438-6.297z"></path>
      </clipPath>
      <clipPath id="w">
        <path fill="#fff" d="M107.094 173c3.52 0 6.375 2.82 6.375 6.297 0 3.478-2.854 6.297-6.375 6.297s-6.375-2.82-6.375-6.297c0-3.478 2.854-6.297 6.375-6.297z"></path>
      </clipPath>
      <clipPath id="x">
        <path fill="#fff" d="M57.64 173c3.513 0 6.36 2.82 6.36 6.297 0 3.478-2.847 6.297-6.36 6.297-3.512 0-6.359-2.82-6.359-6.297 0-3.478 2.847-6.297 6.36-6.297z"></path>
      </clipPath>
      <clipPath id="y">
        <path fill="#fff" d="M6.453 173c3.53 0 6.39 2.82 6.39 6.297 0 3.478-2.86 6.297-6.39 6.297s-6.39-2.82-6.39-6.297c0-3.478 2.86-6.297 6.39-6.297z"></path>
      </clipPath>
      <clipPath id="z">
        <path fill="#fff" d="M207.719 216c3.555 0 6.437 2.82 6.437 6.297 0 3.478-2.882 6.297-6.437 6.297-3.556 0-6.438-2.82-6.438-6.297 0-3.478 2.882-6.297 6.438-6.297z"></path>
      </clipPath>
      <clipPath id="A">
        <path fill="#fff" d="M158.313 216c3.555 0 6.437 2.82 6.437 6.297 0 3.478-2.882 6.297-6.437 6.297-3.556 0-6.438-2.82-6.438-6.297 0-3.478 2.882-6.297 6.438-6.297z"></path>
      </clipPath>
      <clipPath id="B">
        <path fill="#fff" d="M107.094 216c3.52 0 6.375 2.82 6.375 6.297 0 3.478-2.854 6.297-6.375 6.297s-6.375-2.82-6.375-6.297c0-3.478 2.854-6.297 6.375-6.297z"></path>
      </clipPath>
      <clipPath id="C">
        <path fill="#fff" d="M57.64 216c3.513 0 6.36 2.82 6.36 6.297 0 3.478-2.847 6.297-6.36 6.297-3.512 0-6.359-2.82-6.359-6.297 0-3.478 2.847-6.297 6.36-6.297z"></path>
      </clipPath>
      <clipPath id="D">
        <path fill="#fff" d="M6.453 216c3.53 0 6.39 2.82 6.39 6.297 0 3.478-2.86 6.297-6.39 6.297s-6.39-2.82-6.39-6.297c0-3.478 2.86-6.297 6.39-6.297z"></path>
      </clipPath>
      <clipPath id="E">
        <path fill="#fff" d="M207.719 261c3.555 0 6.437 2.82 6.437 6.297 0 3.478-2.882 6.297-6.437 6.297-3.556 0-6.438-2.82-6.438-6.297 0-3.478 2.882-6.297 6.438-6.297z"></path>
      </clipPath>
      <clipPath id="F">
        <path fill="#fff" d="M158.313 261c3.555 0 6.437 2.82 6.437 6.297 0 3.478-2.882 6.297-6.437 6.297-3.556 0-6.438-2.82-6.438-6.297 0-3.478 2.882-6.297 6.438-6.297z"></path>
      </clipPath>
      <clipPath id="G">
        <path fill="#fff" d="M107.094 261c3.52 0 6.375 2.82 6.375 6.297 0 3.478-2.854 6.297-6.375 6.297s-6.375-2.82-6.375-6.297c0-3.478 2.854-6.297 6.375-6.297z"></path>
      </clipPath>
      <clipPath id="H">
        <path fill="#fff" d="M57.64 261c3.513 0 6.36 2.82 6.36 6.297 0 3.478-2.847 6.297-6.36 6.297-3.512 0-6.359-2.82-6.359-6.297 0-3.478 2.847-6.297 6.36-6.297z"></path>
      </clipPath>
      <clipPath id="I">
        <path fill="#fff" d="M6.453 261c3.53 0 6.39 2.82 6.39 6.297 0 3.478-2.86 6.297-6.39 6.297s-6.39-2.82-6.39-6.297c0-3.478 2.86-6.297 6.39-6.297z"></path>
      </clipPath>
      <clipPath id="J">
        <path fill="#fff" d="M207.719 304c3.555 0 6.437 2.82 6.437 6.297 0 3.478-2.882 6.297-6.437 6.297-3.556 0-6.438-2.82-6.438-6.297 0-3.478 2.882-6.297 6.438-6.297z"></path>
      </clipPath>
      <clipPath id="K">
        <path fill="#fff" d="M158.313 304c3.555 0 6.437 2.82 6.437 6.297 0 3.478-2.882 6.297-6.437 6.297-3.556 0-6.438-2.82-6.438-6.297 0-3.478 2.882-6.297 6.438-6.297z"></path>
      </clipPath>
      <clipPath id="L">
        <path fill="#fff" d="M107.094 304c3.52 0 6.375 2.82 6.375 6.297 0 3.478-2.854 6.297-6.375 6.297s-6.375-2.82-6.375-6.297c0-3.478 2.854-6.297 6.375-6.297z"></path>
      </clipPath>
      <clipPath id="M">
        <path fill="#fff" d="M57.64 304c3.513 0 6.36 2.82 6.36 6.297 0 3.478-2.847 6.297-6.36 6.297-3.512 0-6.359-2.82-6.359-6.297 0-3.478 2.847-6.297 6.36-6.297z"></path>
      </clipPath>
      <clipPath id="N">
        <path fill="#fff" d="M6.453 304c3.53 0 6.39 2.82 6.39 6.297 0 3.478-2.86 6.297-6.39 6.297s-6.39-2.82-6.39-6.297c0-3.478 2.86-6.297 6.39-6.297z"></path>
      </clipPath>
      <clipPath id="O">
        <path fill="#fff" d="M207.719 347c3.555 0 6.437 2.82 6.437 6.297 0 3.478-2.882 6.297-6.437 6.297-3.556 0-6.438-2.82-6.438-6.297 0-3.478 2.882-6.297 6.438-6.297z"></path>
      </clipPath>
      <clipPath id="P">
        <path fill="#fff" d="M158.313 347c3.555 0 6.437 2.82 6.437 6.297 0 3.478-2.882 6.297-6.437 6.297-3.556 0-6.438-2.82-6.438-6.297 0-3.478 2.882-6.297 6.438-6.297z"></path>
      </clipPath>
      <clipPath id="Q">
        <path fill="#fff" d="M107.094 347c3.52 0 6.375 2.82 6.375 6.297 0 3.478-2.854 6.297-6.375 6.297s-6.375-2.82-6.375-6.297c0-3.478 2.854-6.297 6.375-6.297z"></path>
      </clipPath>
      <clipPath id="R">
        <path fill="#fff" d="M57.64 347c3.513 0 6.36 2.82 6.36 6.297 0 3.478-2.847 6.297-6.36 6.297-3.512 0-6.359-2.82-6.359-6.297 0-3.478 2.847-6.297 6.36-6.297z"></path>
      </clipPath>
      <clipPath id="S">
        <path fill="#fff" d="M6.453 347c3.53 0 6.39 2.82 6.39 6.297 0 3.478-2.86 6.297-6.39 6.297s-6.39-2.82-6.39-6.297c0-3.478 2.86-6.297 6.39-6.297z"></path>
      </clipPath>
    </defs>
    <g opacity=".7" fill="none" stroke="#476b93" stroke-miterlimit="20" stroke-width="2">
      <path d="M207.719 0c3.555 0 6.437 2.82 6.437 6.297 0 3.478-2.882 6.297-6.437 6.297-3.556 0-6.438-2.82-6.438-6.297 0-3.478 2.882-6.297 6.438-6.297z" clip-path="url(&amp;quot;#a&amp;quot;)" opacity=".7"></path>
      <path d="M158.313 0c3.555 0 6.437 2.82 6.437 6.297 0 3.478-2.882 6.297-6.437 6.297-3.556 0-6.438-2.82-6.438-6.297 0-3.478 2.882-6.297 6.438-6.297z" clip-path="url(&amp;quot;#b&amp;quot;)" opacity=".7"></path>
      <path d="M107.094 0c3.52 0 6.375 2.82 6.375 6.297 0 3.478-2.854 6.297-6.375 6.297s-6.375-2.82-6.375-6.297c0-3.478 2.854-6.297 6.375-6.297z" clip-path="url(&amp;quot;#c&amp;quot;)" opacity=".7"></path>
      <path d="M57.64 0C61.154 0 64 2.82 64 6.297c0 3.478-2.847 6.297-6.36 6.297-3.512 0-6.359-2.82-6.359-6.297 0-3.478 2.847-6.297 6.36-6.297z" clip-path="url(&amp;quot;#d&amp;quot;)" opacity=".7"></path>
      <path d="M6.453 0c3.53 0 6.39 2.82 6.39 6.297 0 3.478-2.86 6.297-6.39 6.297S.063 9.774.063 6.297C.062 2.819 2.922 0 6.452 0z" clip-path="url(&amp;quot;#e&amp;quot;)" opacity=".7"></path>
      <path d="M207.719 43c3.555 0 6.437 2.82 6.437 6.297 0 3.478-2.882 6.297-6.437 6.297-3.556 0-6.438-2.82-6.438-6.297 0-3.478 2.882-6.297 6.438-6.297z" clip-path="url(&amp;quot;#f&amp;quot;)" opacity=".7"></path>
      <path d="M158.313 43c3.555 0 6.437 2.82 6.437 6.297 0 3.478-2.882 6.297-6.437 6.297-3.556 0-6.438-2.82-6.438-6.297 0-3.478 2.882-6.297 6.438-6.297z" clip-path="url(&amp;quot;#g&amp;quot;)" opacity=".7"></path>
      <path d="M107.094 43c3.52 0 6.375 2.82 6.375 6.297 0 3.478-2.854 6.297-6.375 6.297s-6.375-2.82-6.375-6.297c0-3.478 2.854-6.297 6.375-6.297z" clip-path="url(&amp;quot;#h&amp;quot;)" opacity=".7"></path>
      <path d="M57.64 43c3.513 0 6.36 2.82 6.36 6.297 0 3.478-2.847 6.297-6.36 6.297-3.512 0-6.359-2.82-6.359-6.297 0-3.478 2.847-6.297 6.36-6.297z" clip-path="url(&amp;quot;#i&amp;quot;)" opacity=".7"></path>
      <path d="M6.453 43c3.53 0 6.39 2.82 6.39 6.297 0 3.478-2.86 6.297-6.39 6.297s-6.39-2.82-6.39-6.297c0-3.478 2.86-6.297 6.39-6.297z" clip-path="url(&amp;quot;#j&amp;quot;)" opacity=".7"></path>
      <path d="M207.719 86c3.555 0 6.437 2.82 6.437 6.297 0 3.478-2.882 6.297-6.437 6.297-3.556 0-6.438-2.82-6.438-6.297 0-3.478 2.882-6.297 6.438-6.297z" clip-path="url(&amp;quot;#k&amp;quot;)" opacity=".7"></path>
      <path d="M158.313 86c3.555 0 6.437 2.82 6.437 6.297 0 3.478-2.882 6.297-6.437 6.297-3.556 0-6.438-2.82-6.438-6.297 0-3.478 2.882-6.297 6.438-6.297z" clip-path="url(&amp;quot;#l&amp;quot;)" opacity=".7"></path>
      <path d="M107.094 86c3.52 0 6.375 2.82 6.375 6.297 0 3.478-2.854 6.297-6.375 6.297s-6.375-2.82-6.375-6.297c0-3.478 2.854-6.297 6.375-6.297z" clip-path="url(&amp;quot;#m&amp;quot;)" opacity=".7"></path>
      <path d="M57.64 86c3.513 0 6.36 2.82 6.36 6.297 0 3.478-2.847 6.297-6.36 6.297-3.512 0-6.359-2.82-6.359-6.297 0-3.478 2.847-6.297 6.36-6.297z" clip-path="url(&amp;quot;#n&amp;quot;)" opacity=".7"></path>
      <path d="M6.453 86c3.53 0 6.39 2.82 6.39 6.297 0 3.478-2.86 6.297-6.39 6.297s-6.39-2.82-6.39-6.297c0-3.478 2.86-6.297 6.39-6.297z" clip-path="url(&amp;quot;#o&amp;quot;)" opacity=".7"></path>
      <path d="M207.719 130c3.555 0 6.437 2.82 6.437 6.297 0 3.478-2.882 6.297-6.437 6.297-3.556 0-6.438-2.82-6.438-6.297 0-3.478 2.882-6.297 6.438-6.297z" clip-path="url(&amp;quot;#p&amp;quot;)" opacity=".7"></path>
      <path d="M158.313 130c3.555 0 6.437 2.82 6.437 6.297 0 3.478-2.882 6.297-6.437 6.297-3.556 0-6.438-2.82-6.438-6.297 0-3.478 2.882-6.297 6.438-6.297z" clip-path="url(&amp;quot;#q&amp;quot;)" opacity=".7"></path>
      <path d="M107.094 130c3.52 0 6.375 2.82 6.375 6.297 0 3.478-2.854 6.297-6.375 6.297s-6.375-2.82-6.375-6.297c0-3.478 2.854-6.297 6.375-6.297z" clip-path="url(&amp;quot;#r&amp;quot;)" opacity=".7"></path>
      <path d="M57.64 130c3.513 0 6.36 2.82 6.36 6.297 0 3.478-2.847 6.297-6.36 6.297-3.512 0-6.359-2.82-6.359-6.297 0-3.478 2.847-6.297 6.36-6.297z" clip-path="url(&amp;quot;#s&amp;quot;)" opacity=".7"></path>
      <path d="M6.453 130c3.53 0 6.39 2.82 6.39 6.297 0 3.478-2.86 6.297-6.39 6.297s-6.39-2.82-6.39-6.297c0-3.478 2.86-6.297 6.39-6.297z" clip-path="url(&amp;quot;#t&amp;quot;)" opacity=".7"></path>
      <path d="M207.719 173c3.555 0 6.437 2.82 6.437 6.297 0 3.478-2.882 6.297-6.437 6.297-3.556 0-6.438-2.82-6.438-6.297 0-3.478 2.882-6.297 6.438-6.297z" clip-path="url(&amp;quot;#u&amp;quot;)" opacity=".7"></path>
      <path d="M158.313 173c3.555 0 6.437 2.82 6.437 6.297 0 3.478-2.882 6.297-6.437 6.297-3.556 0-6.438-2.82-6.438-6.297 0-3.478 2.882-6.297 6.438-6.297z" clip-path="url(&amp;quot;#v&amp;quot;)" opacity=".7"></path>
      <path d="M107.094 173c3.52 0 6.375 2.82 6.375 6.297 0 3.478-2.854 6.297-6.375 6.297s-6.375-2.82-6.375-6.297c0-3.478 2.854-6.297 6.375-6.297z" clip-path="url(&amp;quot;#w&amp;quot;)" opacity=".7"></path>
      <path d="M57.64 173c3.513 0 6.36 2.82 6.36 6.297 0 3.478-2.847 6.297-6.36 6.297-3.512 0-6.359-2.82-6.359-6.297 0-3.478 2.847-6.297 6.36-6.297z" clip-path="url(&amp;quot;#x&amp;quot;)" opacity=".7"></path>
      <path d="M6.453 173c3.53 0 6.39 2.82 6.39 6.297 0 3.478-2.86 6.297-6.39 6.297s-6.39-2.82-6.39-6.297c0-3.478 2.86-6.297 6.39-6.297z" clip-path="url(&amp;quot;#y&amp;quot;)" opacity=".7"></path>
      <path d="M207.719 216c3.555 0 6.437 2.82 6.437 6.297 0 3.478-2.882 6.297-6.437 6.297-3.556 0-6.438-2.82-6.438-6.297 0-3.478 2.882-6.297 6.438-6.297z" clip-path="url(&amp;quot;#z&amp;quot;)" opacity=".7"></path>
      <path d="M158.313 216c3.555 0 6.437 2.82 6.437 6.297 0 3.478-2.882 6.297-6.437 6.297-3.556 0-6.438-2.82-6.438-6.297 0-3.478 2.882-6.297 6.438-6.297z" clip-path="url(&amp;quot;#A&amp;quot;)" opacity=".7"></path>
      <path d="M107.094 216c3.52 0 6.375 2.82 6.375 6.297 0 3.478-2.854 6.297-6.375 6.297s-6.375-2.82-6.375-6.297c0-3.478 2.854-6.297 6.375-6.297z" clip-path="url(&amp;quot;#B&amp;quot;)" opacity=".7"></path>
      <path d="M57.64 216c3.513 0 6.36 2.82 6.36 6.297 0 3.478-2.847 6.297-6.36 6.297-3.512 0-6.359-2.82-6.359-6.297 0-3.478 2.847-6.297 6.36-6.297z" clip-path="url(&amp;quot;#C&amp;quot;)" opacity=".7"></path>
      <path d="M6.453 216c3.53 0 6.39 2.82 6.39 6.297 0 3.478-2.86 6.297-6.39 6.297s-6.39-2.82-6.39-6.297c0-3.478 2.86-6.297 6.39-6.297z" clip-path="url(&amp;quot;#D&amp;quot;)" opacity=".7"></path>
      <path d="M207.719 261c3.555 0 6.437 2.82 6.437 6.297 0 3.478-2.882 6.297-6.437 6.297-3.556 0-6.438-2.82-6.438-6.297 0-3.478 2.882-6.297 6.438-6.297z" clip-path="url(&amp;quot;#E&amp;quot;)" opacity=".7"></path>
      <path d="M158.313 261c3.555 0 6.437 2.82 6.437 6.297 0 3.478-2.882 6.297-6.437 6.297-3.556 0-6.438-2.82-6.438-6.297 0-3.478 2.882-6.297 6.438-6.297z" clip-path="url(&amp;quot;#F&amp;quot;)" opacity=".7"></path>
      <path d="M107.094 261c3.52 0 6.375 2.82 6.375 6.297 0 3.478-2.854 6.297-6.375 6.297s-6.375-2.82-6.375-6.297c0-3.478 2.854-6.297 6.375-6.297z" clip-path="url(&amp;quot;#G&amp;quot;)" opacity=".7"></path>
      <path d="M57.64 261c3.513 0 6.36 2.82 6.36 6.297 0 3.478-2.847 6.297-6.36 6.297-3.512 0-6.359-2.82-6.359-6.297 0-3.478 2.847-6.297 6.36-6.297z" clip-path="url(&amp;quot;#H&amp;quot;)" opacity=".7"></path>
      <path d="M6.453 261c3.53 0 6.39 2.82 6.39 6.297 0 3.478-2.86 6.297-6.39 6.297s-6.39-2.82-6.39-6.297c0-3.478 2.86-6.297 6.39-6.297z" clip-path="url(&amp;quot;#I&amp;quot;)" opacity=".7"></path>
      <path d="M207.719 304c3.555 0 6.437 2.82 6.437 6.297 0 3.478-2.882 6.297-6.437 6.297-3.556 0-6.438-2.82-6.438-6.297 0-3.478 2.882-6.297 6.438-6.297z" clip-path="url(&amp;quot;#J&amp;quot;)" opacity=".7"></path>
      <path d="M158.313 304c3.555 0 6.437 2.82 6.437 6.297 0 3.478-2.882 6.297-6.437 6.297-3.556 0-6.438-2.82-6.438-6.297 0-3.478 2.882-6.297 6.438-6.297z" clip-path="url(&amp;quot;#K&amp;quot;)" opacity=".7"></path>
      <path d="M107.094 304c3.52 0 6.375 2.82 6.375 6.297 0 3.478-2.854 6.297-6.375 6.297s-6.375-2.82-6.375-6.297c0-3.478 2.854-6.297 6.375-6.297z" clip-path="url(&amp;quot;#L&amp;quot;)" opacity=".7"></path>
      <path d="M57.64 304c3.513 0 6.36 2.82 6.36 6.297 0 3.478-2.847 6.297-6.36 6.297-3.512 0-6.359-2.82-6.359-6.297 0-3.478 2.847-6.297 6.36-6.297z" clip-path="url(&amp;quot;#M&amp;quot;)" opacity=".7"></path>
      <path d="M6.453 304c3.53 0 6.39 2.82 6.39 6.297 0 3.478-2.86 6.297-6.39 6.297s-6.39-2.82-6.39-6.297c0-3.478 2.86-6.297 6.39-6.297z" clip-path="url(&amp;quot;#N&amp;quot;)" opacity=".7"></path>
      <path d="M207.719 347c3.555 0 6.437 2.82 6.437 6.297 0 3.478-2.882 6.297-6.437 6.297-3.556 0-6.438-2.82-6.438-6.297 0-3.478 2.882-6.297 6.438-6.297z" clip-path="url(&amp;quot;#O&amp;quot;)" opacity=".7"></path>
      <path d="M158.313 347c3.555 0 6.437 2.82 6.437 6.297 0 3.478-2.882 6.297-6.437 6.297-3.556 0-6.438-2.82-6.438-6.297 0-3.478 2.882-6.297 6.438-6.297z" clip-path="url(&amp;quot;#P&amp;quot;)" opacity=".7"></path>
      <path d="M107.094 347c3.52 0 6.375 2.82 6.375 6.297 0 3.478-2.854 6.297-6.375 6.297s-6.375-2.82-6.375-6.297c0-3.478 2.854-6.297 6.375-6.297z" clip-path="url(&amp;quot;#Q&amp;quot;)" opacity=".7"></path>
      <path d="M57.64 347c3.513 0 6.36 2.82 6.36 6.297 0 3.478-2.847 6.297-6.36 6.297-3.512 0-6.359-2.82-6.359-6.297 0-3.478 2.847-6.297 6.36-6.297z" clip-path="url(&amp;quot;#R&amp;quot;)" opacity=".7"></path>
      <path d="M6.453 347c3.53 0 6.39 2.82 6.39 6.297 0 3.478-2.86 6.297-6.39 6.297s-6.39-2.82-6.39-6.297c0-3.478 2.86-6.297 6.39-6.297z" clip-path="url(&amp;quot;#S&amp;quot;)" opacity=".7"></path>
    </g>
  </symbol>
</svg>